<?xml version="1.0" encoding="utf-8"?>
<!-- Generator: Adobe Illustrator 25.0.1, SVG Export Plug-In . SVG Version: 6.00 Build 0)  -->
<svg version="1.1" id="Layer_1" xmlns:v="https://vecta.io/nano"
	 xmlns="http://www.w3.org/2000/svg" xmlns:xlink="http://www.w3.org/1999/xlink" x="0px" y="0px" viewBox="0 0 309.4 61"
	 style="enable-background:new 0 0 309.4 61;" xml:space="preserve">
<style type="text/css">
	.st0{fill:#FFFFFF;}
	.st1{fill-rule:evenodd;clip-rule:evenodd;fill:#FFFFFF;}
</style>
<g>
	<path class="st0" d="M257.8,45c0,3,2.3,5.4,5.3,5.4c3,0,5.6-2.5,5.6-5.4c0-2.6-2-5.3-5.5-5.3C260.3,39.7,257.8,42.2,257.8,45z
		 M259.6,44.1c0-1.8,1.1-3.6,3.1-3.6c2.6,0,4.1,2.8,4.1,5.4c0,1.7-1.2,3.6-3.1,3.6C261.1,49.5,259.6,46.8,259.6,44.1L259.6,44.1z
		 M256.2,39.6h-0.3l0,0c-0.1,0.1-0.1,0.2-0.7,0.2l-2.1,0h-2.9l-2.3,0c-0.5,0-0.6-0.2-0.7-0.2l0,0h-0.4l0,0.1c0,0.1-0.8,1.9-0.8,2
		l0,0.1l0.5,0.3l0-0.1c0.3-0.8,0.7-1.3,2.5-1.3c0.5,0,0.9,0,1.4,0.1l0.1,3.7l-0.1,4.5c0,0.2-0.1,0.4-1,0.5l-0.6,0.1l-0.3,0l0.1,0.6
		l0.9-0.1l0.2,0l1.7,0l0.3,0l0.9,0l0.7,0l0.7,0l0-0.1l0.1-0.5l-0.5,0l-0.1,0c-0.4-0.1-0.8-0.2-0.9-0.3c-0.1-0.1-0.3-0.8-0.3-3.8
		l0.1-4.5c0-0.2,0-0.2,1-0.2l0,0l0.6,0h0.1c1.7,0,1.8,0.3,2.1,1.1l0.1,0.2l0.5-0.3l-0.1-0.5L256.2,39.6L256.2,39.6L256.2,39.6
		L256.2,39.6z M241,39.8l1.1,0.1c0.3,0,1,0,2.1,0h0.1v0.5h-0.1c-0.6,0-1.2,0.1-1.2,0.8c-0.1,0.4-0.1,3.6-0.1,5l0.1,3.9l0,0.1l-0.7,0
		l0,0l-7.4-7.7l0,0.6l-0.1,4.2c0,1.7,0,1.9,1.9,2.2l0.1,0v0.5l0,0.1l-0.8-0.1l-1.1-0.1l-2.4,0.1v-0.5l0.7-0.1
		c0.4-0.1,0.6-0.1,0.7-0.7c0.1-0.6,0.1-2.6,0.1-3.3l0-1.8c0.1-2.9-0.2-3.1-1.6-3.3l-0.1,0l0-0.5l0-0.1l0.7,0.1l0.8,0l1.1,0l0,0
		l7.1,7.4l0-2.8c-0.1-4.1,0.3-4.1-1.7-4.2l-0.1,0l0.1-0.5C240.4,39.8,241,39.8,241,39.8L241,39.8z M225.1,39.7
		c3.4,0,5.4,2.7,5.4,5.3c0,2.9-2.6,5.4-5.6,5.4c-3,0-5.3-2.4-5.3-5.4C219.6,42.2,222.2,39.7,225.1,39.7L225.1,39.7z M225.6,49.5
		c1.9,0,3.1-1.8,3.1-3.6c0-2.7-1.5-5.4-4.1-5.4c-2.1,0-3.1,1.8-3.1,3.6C221.4,46.8,223,49.5,225.6,49.5L225.6,49.5z M212.9,39.8
		c2.2,0,3.7,1.2,3.7,2.8c0,1.3-1.2,2.2-2.3,2.6c2.1,2.9,2.5,3.4,3.3,4.1c0,0,0.7,0.7,1.5,0.7l0.1,0l0,0.5H219c-1.8,0-2.7-0.7-3.2-1
		c-1.6-1.2-3.1-3.6-3.4-4.1l-1.2,0v1.8c0,0.7,0,1.7,0.2,2c0.1,0.2,0.9,0.4,1.4,0.6l0.1,0l0,0.5l-0.1,0c-0.7-0.1-1.5-0.2-2.3-0.2
		c-0.4,0-1.9,0.1-2.3,0.1l-0.1,0l-0.1-0.5l0.1,0c0.2,0,1.1-0.2,1.3-0.6c0.2-0.3,0.1-2.1,0.1-2.9v-2.6c0-3.1-0.1-3.1-1.4-3.2l-0.1,0
		l0-0.6l0.2,0l0.9,0l0.9,0c0.2,0,0.8,0,1.4-0.1l0,0L212.9,39.8L212.9,39.8z M211.2,44.6c0.3,0,0.7,0,1,0c0.9,0,2.5-0.2,2.5-1.9
		c0-0.9-0.6-2.2-2.5-2.2c-1,0-1,0-1,1.8C211.2,42.2,211.2,44.4,211.2,44.6L211.2,44.6z M200.6,39.7c3.4,0,5.4,2.7,5.4,5.3
		c0,2.9-2.6,5.4-5.6,5.4c-3,0-5.3-2.4-5.3-5.4C195.2,42.2,197.7,39.7,200.6,39.7L200.6,39.7z M201.2,49.5c1.9,0,3.1-1.8,3.1-3.6
		c0-2.7-1.5-5.4-4.1-5.4c-2.1,0-3.1,1.8-3.1,3.6C197,46.8,198.6,49.5,201.2,49.5L201.2,49.5z M193.6,39.6h-0.3l0,0
		c0,0.1-0.1,0.2-0.7,0.2l-2.1,0h-2.9l-2.3,0c-0.5,0-0.6-0.2-0.7-0.2l0,0h-0.4l0,0.1c-0.3,0.7-0.5,1.4-0.8,2l0,0.1l0.5,0.3l0-0.1
		c0.3-0.8,0.7-1.3,2.5-1.3c0.5,0,0.9,0,1.4,0.1l0.1,3.7l-0.1,4.5c0,0.2-0.1,0.4-1,0.5l-0.6,0.1l-0.3,0l0.1,0.6l0.9-0.1l0.2,0l1.7,0
		l0.3,0l0.9,0l0.7,0l0.7,0l0-0.1l0.1-0.5l-0.5,0l-0.1,0c-0.4-0.1-0.8-0.2-0.9-0.3c-0.1-0.1-0.3-0.8-0.3-3.8l0.1-4.5
		c0-0.2,0-0.2,1-0.2l0,0l0.6,0h0.1c1.7,0,1.8,0.3,2.1,1.1l0.1,0.2l0.5-0.3l-0.1-0.5L193.6,39.6L193.6,39.6L193.6,39.6L193.6,39.6z
		 M174.4,39.8c-1.5,0.2-1.8,0.2-3.5,0.2l-1.8,0l-1.8,0l-0.6,0l-0.5,0l0,0.1v0.4l0.1,0c0.5,0,0.9,0.1,1.1,0.3
		c0.3,0.4,0.3,0.8,0.3,4.4c0,1.7-0.1,3.6-0.2,3.9c-0.1,0.4-0.7,0.5-1.1,0.6l-0.1,0l0,0.5l0.1,0c0.8-0.1,1.6-0.1,2.4-0.1l0.9,0
		l1.7,0.1v-0.6l-0.1,0c-1.2-0.1-1.6-0.3-1.7-0.5c-0.1-0.2-0.2-0.8-0.2-1.4l0-0.6l0.1-1.9l0.9,0c0.9,0,2.1,0.2,2.4,0.3
		c0.2,0.1,0.3,0.4,0.4,0.8l0,0.1h0.5l0-0.1c0.1-1.1,0.1-2.1,0.1-2.9l0-0.1h-0.5l0,0.1c-0.1,0.8-0.2,1.1-2.2,1.1
		c-0.5,0-0.9,0-1.4-0.1l0,0l0-0.6l0-0.7l0-2.5l1.2-0.1c1.1,0,2.1,0.2,2.5,0.5c0.3,0.2,0.4,0.6,0.5,1l0,0.1l0.6,0l0-0.1
		c0-0.2,0-0.7,0.1-1.2L174.4,39.8L174.4,39.8L174.4,39.8z M158.7,39.7c3.4,0,5.4,2.7,5.4,5.3c0,2.9-2.6,5.4-5.6,5.4
		c-3,0-5.3-2.4-5.3-5.4C153.2,42.2,155.8,39.7,158.7,39.7L158.7,39.7z M159.2,49.5c1.9,0,3.1-1.8,3.1-3.6c0-2.7-1.5-5.4-4.1-5.4
		c-2.1,0-3.1,1.8-3.1,3.6C155.1,46.8,156.6,49.5,159.2,49.5L159.2,49.5z M139.9,39.9v0.5l0.1,0c0.5,0,1.2,0.1,1.2,0.5
		c0,0.1-0.2,0.7-2.2,3.5c-0.8-1-2.7-3.4-2.7-3.7c0-0.1,0-0.2,1.2-0.3l0.1,0v-0.6l-1,0l-1.9,0l-2.1,0v0.5h0.1c0.5,0,0.8,0.1,1.1,0.2
		c0.6,0.4,2.8,3.2,2.9,3.4c0,0,0.9,1.1,1,1.2l0.1,2.5c0,1.5,0,1.9-1.4,1.9l-0.1,0l0,0.5l0.1,0c0.2,0,0.9,0,1.5-0.1l1.1-0.1l0.8,0
		l0.2,0l1.1,0.1l0-0.1v-0.4l-0.1,0c-1.4-0.1-1.4-0.3-1.4-0.6c0,0,0-0.1,0-0.1l-0.1-2.1c0-0.6,0-1.2,0-1.8l2-3.1
		c0.6-1,0.5-1.5,1.9-1.5l0.1,0v-0.6l-0.1,0c-0.2,0-0.2,0-0.7,0l-0.7,0l-0.8,0l-0.6,0C140.8,39.8,140,39.8,139.9,39.9L139.9,39.9
		L139.9,39.9L139.9,39.9z M130.8,39.6h-0.3l0,0c-0.1,0.1-0.1,0.2-0.7,0.2l-2.1,0h-2.9l-2.3,0c-0.5,0-0.6-0.2-0.7-0.2l0,0h-0.4l0,0.1
		c0,0.1-0.8,1.9-0.8,2l0,0.1l0.5,0.3l0-0.1c0.3-0.8,0.7-1.3,2.5-1.3c0.6,0,1.1,0,1.4,0.1l0.1,3.7l-0.1,4.5c0,0.2-0.1,0.4-1,0.5
		c0,0-0.6,0.1-0.6,0.1l-0.2,0l0.1,0.6l0.9-0.1l0.2,0l1.7,0l0.3,0l0.9,0l0.7,0l0.7,0l0-0.1l0.1-0.5l-0.5,0l-0.1,0
		c-0.4-0.1-0.8-0.2-0.9-0.3c-0.1-0.1-0.3-0.8-0.3-3.8l0-2.1l0.1-2.4c0-0.2,0-0.2,0.9-0.2l0,0l0.6,0h0.1c1.7,0,1.8,0.3,2.1,1.1
		l0.1,0.2l0.5-0.3l-0.1-0.5L130.8,39.6L130.8,39.6L130.8,39.6L130.8,39.6z M113.5,39.9v0.5l0.1,0c1.4,0,1.6,0.3,1.7,0.6
		c0.2,0.5,0.2,3.4,0.2,4.4v0.2c0,0.9,0,2.9-0.3,3.4c-0.1,0.2-0.4,0.4-1.8,0.5l-0.1,0v0.5l1.6-0.1h1.5l2.5,0.1l0-0.1l0-0.5h-0.1
		c-1.1,0-1.4,0-1.6-0.4c-0.1-0.2-0.1-1.2-0.1-2.9l0.2-5.4c0.3-0.4,1.2-0.4,1.5-0.4l0.1,0v-0.6h-1.2l-1.7,0l-1.1,0l-0.5,0L113.5,39.9
		L113.5,39.9L113.5,39.9L113.5,39.9z M104.3,42.7c0,1.7,1.5,2.4,2.6,2.8l0.1,0c1.9,0.8,2.7,1.1,2.7,2.4c0,0.8-0.6,1.6-1.8,1.6
		c-1.1,0-1.9-0.5-2.4-0.9c-0.6-0.5-0.7-1.2-0.8-1.5l0-0.1h-0.6l0,0.1c0.3,1.1,0.5,1.6,0.4,2.9v0.1l0.5,0l0-0.1
		c0-0.1,0.1-0.2,0.2-0.2s0.5,0.1,0.6,0.1l0.1,0l0.2,0c0.3,0.1,0.6,0.2,1.3,0.2c2.5,0,3.9-1.5,3.9-3c0-2-2-2.8-3.3-3.3
		c-1.3-0.5-2.2-0.9-2.2-1.9c0-1,0.8-1.7,1.9-1.7c1,0,1.8,0.6,2,0.8c0.4,0.4,0.5,0.8,0.6,1.3l0,0.1l0.1,0h0.5l-0.1-1.3
		c0-0.5,0.1-1,0.2-1.2l0-0.1l-0.5-0.1l-0.3,0.2c-0.9-0.2-1.4-0.3-2.1-0.3C105.8,39.7,104.3,40.9,104.3,42.7L104.3,42.7z M97,39.8
		c2.2,0,3.7,1.2,3.7,2.8c0,1.3-1.2,2.2-2.3,2.6c2.1,2.9,2.5,3.4,3.3,4.1c0,0,0.7,0.7,1.5,0.7l0.1,0l0,0.5h-0.1c-1.8,0-2.7-0.7-3.2-1
		c-1.6-1.2-3.1-3.6-3.4-4.1l-1.2,0v1.4l0,0.5c0,0.7,0,1.7,0.2,2c0.1,0.2,0.9,0.4,1.4,0.6l0.1,0l0,0.5l-0.1,0
		c-0.6-0.1-1.6-0.2-2.3-0.2c-0.4,0-1.9,0.1-2.3,0.1l-0.1,0l-0.1-0.5l0.1,0c0.2,0,1.1-0.2,1.3-0.6c0.2-0.3,0.2-2.1,0.2-2.9v-2.6
		c0-3.1-0.1-3.1-1.4-3.2l-0.1,0l0-0.6l0.2,0l0.9,0l0.9,0c0.2,0,0.8,0,1.4-0.1l0,0L97,39.8L97,39.8z M95.3,44.6c0.3,0,0.8,0,1,0
		c0.9,0,2.5-0.2,2.5-1.9c0-0.9-0.7-2.2-2.5-2.2c-1,0-1,0-1,1.8C95.3,42.2,95.3,44.4,95.3,44.6L95.3,44.6z M88.9,39.8l-4.6,0.1
		c-0.8,0-2.8,0-3.6-0.1l-0.1,0v0.5l0.1,0c0.9,0.2,0.9,0.2,1,0.4C81.8,41,82,41.9,82,45c0,1.3-0.1,3.4-0.2,4.1
		c-0.1,0.3-0.5,0.5-1.2,0.5l-0.1,0l0.1,0.6l0.1,0c1.4-0.2,3.1-0.2,4.1-0.2l4.1,0.1l0-0.1c0.2-0.3,0.5-0.9,0.8-2.5l0-0.1l-0.5,0
		l0,0.1c-0.3,0.9-1.1,1.9-3.6,1.9c-0.9,0-1.3-0.1-1.8-0.3c-0.1-0.3-0.1-0.7-0.1-2l0-1.9c0.7-0.1,1.3-0.1,1.5-0.1
		c2,0,2.2,0.2,2.4,1.4l0,0.1h0.5v-0.1l0.1-3.1l0-0.1h-0.5l0,0.1c-0.2,0.8-0.4,0.9-0.7,0.9c-1.5,0.2-2.9,0.1-3.3,0.1l0-1.4
		c0-0.7,0.1-1.7,0.2-2.4c0.5-0.1,1.6-0.2,2-0.2c1.1,0,1.8,0.1,2.1,0.5c0.3,0.3,0.3,0.6,0.2,1.1l0,0.1l0.6,0.1v-0.1
		c0-0.1,0.1-0.5,0.1-0.8l0.1-0.4C89,40.4,89,40.2,88.9,39.8L88.9,39.8L88.9,39.8L88.9,39.8z M66.5,39.9l0,0.4l0.1,0
		c1.4,0.2,1.4,0.2,2.6,2.5c0,0,2.3,4.7,2.3,4.7l0,0l1.2,2.8l0,0.1h0.5l0-0.1c0.4-1.1,0.9-2.3,1.4-3.3l2.5-4.9c0.6-1.2,0.8-1.4,2-1.7
		l0.1,0v-0.6l-0.1,0c-0.6,0-1.3,0-1.9,0c0,0-2-0.1-2-0.1l0,0.1l0,0.5l0.1,0c0.5,0,1.2,0.1,1.2,0.6c0,0.3-0.2,0.8-0.4,1.1l0,0.1
		c-0.4,0.8-0.8,1.6-1.2,2.4l-1.1,2.3l-0.3,0.6c-1.1-1.8-3.2-6.6-3.2-6.9c0-0.1,0-0.1,0.9-0.2l0.3,0v-0.6l-1.6,0l-0.9,0
		c-0.6,0-1.8,0-2.4-0.1l-0.1,0L66.5,39.9L66.5,39.9z M59.5,39.9v0.5l0.1,0c1.3,0,1.6,0.3,1.7,0.6c0.2,0.5,0.2,3.4,0.2,4.4v0.2
		c0,0.9,0,2.9-0.3,3.4c-0.1,0.2-0.4,0.4-1.8,0.5l-0.1,0v0.5l1.6-0.1h1.5l2.5,0.1l0-0.1l0-0.5h-0.1c-1.1,0-1.4,0-1.6-0.4
		c-0.1-0.2-0.1-1.2-0.1-2.9l0.2-5.4c0.3-0.4,1.2-0.4,1.5-0.4l0.1,0v-0.6h-1.2l-1.7,0l-1.1,0l-0.5,0L59.5,39.9L59.5,39.9L59.5,39.9
		L59.5,39.9z M54.3,39.8l1.1,0.1c0.3,0,1,0,2.1,0h0.1v0.5h-0.1c-0.6,0-1.2,0.1-1.2,0.8c-0.1,0.4-0.1,3.6-0.1,5l0,3.9l0,0.1l-0.7,0
		l0,0l-7.4-7.7l0,0.6l-0.1,4.2c0,1.7,0,1.9,1.9,2.2l0.1,0V50l0,0.1l-0.8-0.1L48.1,50l-2.4,0.1v-0.5l0-0.1l0.7-0.1
		c0.4-0.1,0.6-0.1,0.7-0.7c0.1-0.6,0.2-2.6,0.2-3.3l0-1.8c0.1-2.9-0.2-3.1-1.6-3.3l-0.1,0l0-0.5l0-0.1l0.7,0.1l0.8,0l1.1,0l0,0
		l7.1,7.4l0-2.8c-0.1-4.1,0.3-4.1-1.7-4.2l-0.1,0l0.1-0.5C53.7,39.8,54.3,39.8,54.3,39.8L54.3,39.8z M36.8,39.8L36.8,39.8l0.1,0.6
		l-0.1,0c-1.6,0.1-1.7,0.2-1.7,3.7V46c0,1.1,0,3.4,2.9,3.4c3.2,0,3.4-2.1,3.4-5.5v-0.9c0-0.7-0.1-2.1-0.4-2.4
		c-0.2-0.2-0.7-0.3-1.3-0.3h-0.1v-0.5l0-0.1l0.6,0l1.4,0l1.8,0l0.2,0l0,0.6l-0.1,0c-1.2,0.1-1.2,0.4-1.2,1.1l0,0.1l0,1.5
		c-0.1,4.9-0.3,7.3-4.8,7.3c-2.8,0-4.3-1.2-4.3-3.5l0.1-3.3c0-1.6-0.1-2.7-0.4-2.9c-0.2-0.1-0.4-0.1-1.1-0.1h-0.1l0-0.6l0.1,0
		c0.2,0,1.6,0,2.3,0l0.6,0L36.8,39.8L36.8,39.8z"/>
	<g>
		<path id="B" class="st0" d="M41.4,24.5c-0.6-0.4-1.8-0.4-2.4-0.4l-1,0l-0.1,6.9c0,1.7,0.1,1.7,0.9,1.9l0.8,0.1l0,0.4
			c-0.1,0-0.5,0-0.8,0l-0.8,0c-1.6,0-1.8,0-3.4,0.3l-0.1-0.4c0.3-0.1,1.5-0.4,1.6-0.6c0.2-0.3,0.2-3.6,0.2-4.1l-0.2-4.4l-1.5,0
			c-2.1,0-2.2,0.3-2.5,1L31.5,25l0.7-1.9h0.3c0.1,0.1,0.4,0.2,0.7,0.2c0.7,0.1,3.1,0.1,3.9,0.1l4.6-0.1c0.2,0,0.3,0,0.4-0.1l0.2,0.1
			c-0.1,0.4-0.4,1-0.5,1.7l-0.5,0.1L41.4,24.5L41.4,24.5z"/>
	</g>
	<g>
		<path id="C" class="st0" d="M51.2,30h-0.4c-0.2-1.4-0.2-1.5-2.8-1.5c-0.7,0-0.9,0-1.3,0.1l-0.1,2.1c0,0.9,0.1,1.5,0.2,1.9
			c0.5,0.1,1.3,0.2,2.3,0.2c2.4,0,2.9-1.2,3.1-1.8h0.4c-0.1,0.9-0.2,1.4-0.7,2.5l-2.4-0.1l-1.9,0l-3.8,0.1l0-0.4
			c0.6-0.1,0.9-0.2,1-0.7c0.2-0.9,0.2-3.7,0.2-4.8L45,24.8c-0.1-0.9-0.2-1-0.8-1.1c-0.1,0-0.2,0-0.2,0v-0.3h5.2l2.8-0.1
			c0.1,1.1-0.2,2.2-0.4,2.2c-0.1,0-0.2,0-0.3,0c0.1-0.2,0.1-0.4,0.1-0.6c0-0.6-0.7-0.9-2.3-0.9c-0.7,0-1.4,0.1-2.1,0.2
			c-0.1,1-0.2,1.6-0.2,2.5l0,1.4l1.5,0c1.1,0,2-0.1,2.1-0.2c0.3-0.1,0.4-0.9,0.4-0.9h0.4L51.2,30L51.2,30z"/>
	</g>
	<path class="st0" d="M56.2,26.7l0-1.1c0-1.3-0.5-1.7-1.8-1.8l0-0.4c0.1,0,0.6,0,0.8,0l2.4,0.1l2.7,5.3l1.1,2l1-1.9l0.8-1.6l1.9-3.8
		h2.8v0.4c-1.2,0.2-1.5,0.3-1.5,2l0.3,6.5c0.1,0.5,0.3,0.6,1.3,0.7v0.4h-2l-2.4,0.1L63.7,33c1.2-0.3,1.5-0.4,1.5-2.2L65,25.5h0
		l-3.9,7.9h-0.3c-0.4-1.4-0.6-1.7-2.4-5l-1.3-2.4h0L57,27.1l-0.2,4.4c0,1,0.1,1.3,1.5,1.5l0,0.4l-1.1,0l-0.9,0l-1,0l-0.9,0l0-0.4
		c1.6-0.2,1.6-0.9,1.7-2.9L56.2,26.7L56.2,26.7z"/>
	<g>
		<path id="C_1_" class="st0" d="M77.5,30h-0.4c-0.2-1.4-0.2-1.5-2.8-1.5c-0.7,0-0.9,0-1.3,0.1L73,30.7c0,0.9,0.1,1.5,0.2,1.9
			c0.5,0.1,1.3,0.2,2.3,0.2c2.4,0,2.9-1.2,3.1-1.8h0.4c-0.1,0.9-0.2,1.4-0.7,2.5l-2.4-0.1l-1.9,0l-3.8,0.1l0-0.4
			c0.6-0.1,0.9-0.2,1-0.7c0.2-0.9,0.2-3.7,0.2-4.8l-0.1-2.8c-0.1-0.9-0.2-1-0.8-1.1c-0.1,0-0.2,0-0.2,0v-0.3h5.2l2.8-0.1
			c0.1,1.1-0.2,2.2-0.4,2.2c-0.1,0-0.2,0-0.3,0c0.1-0.2,0.1-0.4,0.1-0.6c0-0.6-0.7-0.9-2.3-0.9c-0.7,0-1.4,0.1-2.1,0.2
			c-0.1,1-0.2,1.6-0.2,2.5l0,1.4l1.5,0c1.1,0,2-0.1,2.1-0.2c0.3-0.1,0.4-0.9,0.4-0.9h0.4L77.5,30L77.5,30z"/>
	</g>
	<path class="st0" d="M80.9,33.2c0.7-0.2,1-0.3,1.1-0.8c0.1-0.4,0.1-4.1,0.1-5l-0.1-2.8c-0.1-0.7-0.8-0.7-1.1-0.8l0.1-0.4l1.4,0
		c0.2,0,0.8,0,1.3-0.1l1.3-0.1c2.7,0,3.7,1.5,3.7,2.7c0,1.2-0.9,2.2-2.2,2.6c1.8,3.5,3.1,4.9,4.7,5.1V34c-1.6,0-3.9,0-6.5-5.3
		l-1-0.1l0,1.5c0,0.5,0,2.1,0.2,2.5c0.2,0.3,0.9,0.5,1.1,0.5L85,33.5l-1.1-0.1l-1,0c-0.7,0-0.8,0-2,0.1
		C80.9,33.5,80.9,33.2,80.9,33.2z M84.8,23.7c-0.8,0-0.8,0.2-0.9,1.2l-0.1,3.1c0.2,0,0.3,0.1,0.8,0.1c0.8,0,2.5,0,2.5-2.1
		C87,25.5,86.7,23.7,84.8,23.7L84.8,23.7z"/>
	<g>
		<path id="B_1_" class="st0" d="M100.4,24.5c-0.6-0.4-1.8-0.4-2.4-0.4l-1,0l-0.1,6.9c0,1.7,0.1,1.7,0.9,1.9l0.8,0.1l0,0.4
			c-0.1,0-0.5,0-0.8,0l-0.8,0c-1.6,0-1.8,0-3.4,0.3l-0.1-0.4c0.3-0.1,1.5-0.4,1.6-0.6c0.2-0.3,0.2-3.6,0.2-4.1l-0.2-4.4l-1.5,0
			c-2.1,0-2.2,0.3-2.5,1L90.5,25l0.7-1.9h0.3c0.1,0.1,0.4,0.2,0.7,0.2c0.7,0.1,3.1,0.1,3.9,0.1l4.6-0.1c0.2,0,0.3,0,0.4-0.1l0.2,0.1
			c-0.1,0.4-0.4,1-0.5,1.7l-0.5,0.1L100.4,24.5L100.4,24.5z"/>
	</g>
	<path class="st0" d="M108.8,28.7l0.1,3.9c0.1,0.3,1,0.5,1.4,0.6l0,0.4l-1-0.1l-1.1,0c-0.2,0-0.7,0-1.2,0.1l-1.2,0.1l0-0.4
		c1-0.1,1.2-0.3,1.3-0.6c0.1-0.3,0.1-2.6,0.1-3.1l0-0.6c-0.5-0.8-0.9-1.5-2.6-3.7c-0.6-0.8-1.1-1.4-2.1-1.4l-0.1-0.4l1.1,0l1.1,0
		l2.2,0l-0.1,0.4c-0.1,0-0.9,0-0.9,0.3s1.8,2.7,2.8,3.9l2.2-3.7c0-0.5-0.6-0.5-1-0.5l0.1-0.5l0.8,0l1,0l1.6,0l0,0.5
		c-1.1,0-1.7,0.4-3.7,3.7L108.8,28.7L108.8,28.7z M124,27.9l1.6,0.1c2,0,2-0.2,2.1-1l0.5,0l0,1.2l-0.1,1.6l-0.4,0c0-0.9,0-1-1-1.1
		c-0.8-0.1-1.4-0.1-2.6-0.1l0,2.2v0.7c0,1.1,0,1.5,1.7,1.6v0.4l-2.3,0l-2.2,0V33c0.4-0.1,0.8-0.2,0.9-0.6c0.2-0.7,0.2-3.2,0.2-4.1
		c0-0.8,0-3.8-0.2-4.2c-0.2-0.4-0.7-0.4-1.1-0.4v-0.4c0.3,0,1.2,0,2.2,0l2.2,0l3.5-0.1c-0.1,0.5-0.1,0.9-0.1,2.1l-0.4,0
		c-0.1-0.5-0.1-0.9-0.3-1c-0.6-0.4-2-0.5-2.7-0.5l-1.3,0.1c-0.1,0.4-0.1,1.2-0.1,1.7L124,27.9L124,27.9z M131.8,31.2
		c-0.1,0.3-0.4,0.9-0.4,1.2c0,0.6,0.8,0.7,1.2,0.8v0.4c-0.4,0-0.7,0-1.1,0l-0.9,0l-1.1,0v-0.3c0.3,0,0.7-0.1,1-0.6
		c0.6-0.9,3.4-7.8,3.6-8.3l0.4-1h0.4l0.4,1.2l2.3,6c0.9,2.6,1.2,2.6,1.9,2.7v0.3l-0.6,0l-0.8,0l-2.3,0.1v-0.4
		c0.4-0.1,0.8-0.2,0.8-0.6c0-0.2-0.8-2.3-0.9-2.6c-0.3,0-0.5,0-1.2,0c-0.6,0-1.4,0-2.2,0.1L131.8,31.2L131.8,31.2z M132.5,29.2
		c0.4,0.1,1.1,0.1,1.8,0.1c0.5,0,0.8,0,1.1-0.1l-1.4-3.5L132.5,29.2L132.5,29.2z"/>
	<g>
		<path id="D" class="st0" d="M149.2,33.1c-1,0.3-2.1,0.4-3.2,0.5c-3.2,0-5.6-2.2-5.6-5.2c0-3.5,2.9-5.2,5.9-5.2
			c0.7,0,1.4,0.1,2,0.4c0.2,0.1,0.5,0.2,0.7,0.2s0.3-0.1,0.4-0.1l0.2,0.1l-0.5,2.2l-0.3-0.1c-0.1-0.7-0.1-0.9-0.3-1.1
			c-0.2-0.3-1.2-0.9-2.6-0.9c-3.6,0-3.6,3.7-3.6,4.5c0,4.4,3.2,4.7,3.9,4.7c1.4,0,2.6-0.7,3.1-2.1l0.4,0c0,0.2,0,0.4-0.1,0.8
			l-0.2,0.8L149.2,33.1L149.2,33.1z"/>
	</g>
	<path class="st0" d="M152.9,25.6c0-1.7-0.2-1.7-1.2-1.8v-0.4h4.4l0.1,0.4c-0.1,0-0.2,0-0.3,0c-1.3,0.2-1.4,0.2-1.4,4.3
		c0,2.8,0.2,3.6,0.9,4.1c0.7,0.5,1.6,0.6,2.1,0.6c0.3,0,2.3,0,2.9-1.5c0.4-0.9,0.5-2.8,0.5-4.8c0-2.6-0.3-2.7-1.4-2.7l-0.1-0.5
		l0.9,0l0.9,0h1.6v0.5c-0.4,0-0.8,0-1,0.3c-0.1,0.3-0.1,2-0.1,2.4c0,1.4-0.2,4.2-0.7,5.3c-0.7,1.5-2.8,1.7-4.1,1.7
		c-1.5,0-4.1-0.4-4.1-3.2l0.1-3L152.9,25.6L152.9,25.6z M173.1,31.3c-0.1,0.5-0.1,0.6-0.6,2.3l-1.1-0.1c-0.5,0-1.1,0-2.2,0h-4.5
		l0-0.4c0.3,0,0.7-0.1,0.9-0.4c0.3-0.3,0.3-0.5,0.3-4.4l-0.1-3.7c-0.1-0.7-0.6-0.7-1-0.8v-0.4l2,0l2.2,0v0.4c-0.5,0.1-1,0.1-1.1,0.4
		c-0.2,0.4-0.3,3.4-0.3,4.1l0,2.5c0,1,0,1.5,0.2,1.7c0.1,0.2,0.5,0.2,1.3,0.2c3.2,0,3.6-0.7,3.8-1.5L173.1,31.3L173.1,31.3z
		 M183.1,24.5c-0.6-0.4-1.8-0.4-2.4-0.4l-1,0l-0.1,6.9c0,1.7,0.1,1.7,0.9,1.9l0.8,0.1l-0.1,0.4c-0.1,0-0.5,0-0.8,0l-0.8,0
		c-1.6,0-1.8,0-3.4,0.3l-0.1-0.4c0.3-0.1,1.5-0.4,1.6-0.6c0.2-0.3,0.2-3.6,0.2-4.1l-0.2-4.4l-1.5,0c-2.1,0-2.2,0.3-2.5,1l-0.4-0.1
		l0.7-1.9h0.3c0.1,0.1,0.4,0.2,0.7,0.2c0.7,0.1,3.1,0.1,3.9,0.1l4.6-0.1c0.2,0,0.3,0,0.4-0.1l0.2,0.1c-0.1,0.4-0.4,1-0.5,1.7
		l-0.5,0.1L183.1,24.5L183.1,24.5z M191.5,28.7l0.1,3.9c0.1,0.3,1,0.5,1.4,0.6l0,0.4l-1-0.1l-1.1,0c-0.2,0-0.7,0-1.2,0.1l-1.2,0.1
		l0-0.4c1-0.1,1.2-0.3,1.3-0.6c0.1-0.3,0.1-2.6,0.1-3.1l0-0.6c-0.5-0.8-0.9-1.5-2.6-3.7c-0.6-0.8-1.1-1.4-2.1-1.4l-0.1-0.4l1.1,0
		l1.1,0l2.2,0l-0.1,0.4c-0.1,0-0.9,0-0.9,0.3s1.8,2.7,2.8,3.9l2.2-3.7c0-0.5-0.6-0.5-1-0.5l0.1-0.5l0.8,0l1,0l1.6,0l0,0.5
		c-1.1,0-1.7,0.4-3.7,3.7L191.5,28.7L191.5,28.7z M204.8,25.8c1.9,0,3.4,1.5,3.4,3.3c0,1.7-1.4,3.4-3.5,3.4c-2.2,0-3.5-1.6-3.5-3.4
		C201.3,27,203,25.8,204.8,25.8L204.8,25.8z M205,32.1c0.7,0,2.1-0.4,2.1-2.3c0-1.3-0.7-3.6-2.5-3.6c-0.5,0-2.1,0.2-2.1,2.3
		C202.5,30.2,203.3,32.1,205,32.1L205,32.1z M211.4,28.8l1,0c1.3,0,1.3-0.1,1.3-0.7l0.3,0l0,0.8l0,1h-0.3c0-0.6,0-0.6-0.6-0.7
		c-0.6-0.1-1.1-0.1-1.7-0.1l0,1.4V31c0,0.7,0,0.9,1.1,1v0.3l-1.5,0l-1.4,0v-0.2c0.2,0,0.5-0.1,0.6-0.4c0.1-0.5,0.1-2,0.1-2.6
		c0-0.5,0-2.4-0.2-2.7c-0.1-0.2-0.5-0.3-0.7-0.3v-0.2c0.2,0,0.8,0,1.4,0l1.4,0l2.3-0.1c-0.1,0.4-0.1,0.6-0.1,1.3l-0.3,0
		c0-0.3-0.1-0.6-0.2-0.7c-0.4-0.3-1.3-0.3-1.7-0.3l-0.8,0c0,0.3,0,0.8,0,1.1L211.4,28.8L211.4,28.8z M222.1,26.7l0-1.1
		c0-1.3-0.5-1.7-1.8-1.8l0-0.4c0.1,0,0.6,0,0.8,0l2.4,0.1l2.7,5.3l1.1,2l1-1.9l0.9-1.6l1.9-3.8h2.8v0.4c-1.2,0.2-1.5,0.3-1.5,2
		l0.3,6.5c0.1,0.5,0.3,0.6,1.3,0.7v0.4h-2l-2.4,0.1l-0.1-0.4c1.2-0.3,1.5-0.4,1.5-2.2l-0.2-5.4h0l-3.9,7.9h-0.3
		c-0.4-1.4-0.6-1.7-2.4-5l-1.3-2.4h0l-0.1,1.2l-0.2,4.4c0,1,0.1,1.3,1.5,1.5l0,0.4l-1.1,0l-0.9,0l-1,0l-0.9,0l0-0.4
		c1.6-0.2,1.6-0.9,1.7-2.9L222.1,26.7L222.1,26.7z M243.4,30h-0.4c-0.2-1.4-0.2-1.5-2.8-1.5c-0.4,0-0.8,0-1.3,0.1l0,2.1
		c0,0.9,0.1,1.5,0.2,1.9c0.7,0.1,1.5,0.2,2.3,0.2c2.5,0,2.9-1.2,3.1-1.8h0.4c-0.1,0.9-0.2,1.4-0.7,2.5l-2.4-0.1l-1.9,0l-3.8,0.1
		l0.1-0.4c0.6-0.1,0.9-0.2,1-0.7c0.2-0.9,0.2-3.7,0.2-4.8l-0.1-2.8c-0.1-0.9-0.2-1-0.8-1.1c-0.1,0-0.2,0-0.2,0v-0.3h5.2l2.8-0.1
		c0,1.1-0.2,2.2-0.4,2.2c-0.1,0-0.2,0-0.3,0c0-0.2,0.1-0.4,0.1-0.6c0-0.6-0.7-0.9-2.3-0.9c-0.7,0-1.4,0.1-2.1,0.2
		c-0.1,0.8-0.2,1.7-0.2,2.5l0,1.4l1.5,0c1.1,0,2-0.1,2.1-0.2c0.3-0.1,0.4-0.9,0.4-0.9h0.4L243.4,30L243.4,30z M248.3,29.4l-0.1-3.9
		c-0.1-1.3-0.1-1.5-1.1-1.6v-0.4l2.5,0l2.5-0.2c3.5,0,5.9,2.1,5.9,5c0,2.3-1.6,5.2-6.1,5.2c-0.4,0-2.2-0.1-2.5-0.1l-1.9,0h-0.5V33
		c1.1,0,1.2-0.1,1.2-2.6L248.3,29.4L248.3,29.4z M251.8,23.8c-0.6,0-1.2,0.1-1.7,0.4c-0.1,1-0.1,1.9-0.1,3.8l0,4.5
		c0.5,0.2,1.3,0.4,2.1,0.4c2.2,0,3.9-1.8,3.9-4.6C256.1,24.9,253.6,23.8,251.8,23.8L251.8,23.8z"/>
	<g>
		<path id="E" class="st0" d="M260.3,33c0.6-0.1,1.3-0.1,1.5-0.5c0.3-0.5,0.3-3.2,0.3-4.1c0-0.7,0-3.8-0.2-4.2
			c-0.1-0.2-0.2-0.4-1.5-0.4l0-0.4l1.4,0l1.2,0l2.3-0.1v0.5c-0.8,0-1.1,0-1.2,0.2c-0.4,0.4-0.4,3.2-0.4,4l0.1,4.3
			c0.1,0.5,0.2,0.6,1.4,0.7l0,0.4l-2.6,0c-1.2,0-1.9,0-2.4,0L260.3,33L260.3,33z"/>
	</g>
	<g>
		<path id="D_1_" class="st0" d="M276.4,33.1c-1,0.3-2.1,0.4-3.2,0.5c-3.2,0-5.5-2.2-5.5-5.2c0-3.5,2.9-5.2,5.9-5.2
			c0.7,0,1.4,0.1,2,0.4c0.2,0.1,0.5,0.2,0.7,0.2s0.3-0.1,0.4-0.1l0.2,0.1l-0.5,2.2l-0.3-0.1c-0.1-0.7-0.1-0.9-0.3-1.1
			c-0.2-0.3-1.2-0.9-2.6-0.9c-3.6,0-3.6,3.7-3.6,4.5c0,4.4,3.2,4.7,3.9,4.7c1.4,0,2.6-0.7,3.1-2.1l0.4,0c0,0.2,0,0.4-0.1,0.8
			l-0.2,0.8L276.4,33.1L276.4,33.1z"/>
	</g>
	<g>
		<path id="E_1_" class="st0" d="M279.1,33c0.6-0.1,1.3-0.1,1.5-0.5c0.3-0.5,0.3-3.2,0.3-4.1c0-0.7,0-3.8-0.2-4.2
			c-0.1-0.2-0.2-0.4-1.5-0.4l0-0.4l1.4,0l1.2,0l2.3-0.1v0.5c-0.8,0-1.1,0-1.2,0.2c-0.4,0.4-0.4,3.2-0.4,4l0.1,4.3
			c0.1,0.5,0.2,0.6,1.4,0.7l0,0.4l-2.6,0c-1.2,0-1.9,0-2.4,0L279.1,33L279.1,33z"/>
	</g>
	<path class="st0" d="M296,30.6l0-3.2c0-3.4-0.1-3.6-1.7-3.8l0.1-0.4c0.1,0,0.3,0,0.4,0c0.3,0,0.6,0,0.9,0c0.4,0,0.8,0.1,0.9,0.1
		l1.3,0v0.4c-0.2,0-0.7,0-0.9,0.4c-0.3,0.6-0.3,3.3-0.3,4.2l0,3.4l0,1.3l0,0.6h-0.5c-0.6-1-1.4-1.9-2.3-2.7l-5-4.8l-0.7-0.6l0,1.4
		l-0.1,3.7c0,1.5,0,2.1,1.8,2.4c0,0.2,0,0.3,0,0.4l-0.7-0.1l-0.9,0l-2.3,0.1c0-0.1,0-0.3,0-0.4c1,0,1.1-0.6,1.2-2l0.1-4.7
		c0-1.3,0-2.4-1.4-2.7c0-0.2,0-0.3,0-0.5c0.1,0,0.4,0,0.8,0l0.8,0h0.8c1,1.1,1.1,1.2,3.8,3.8l2.3,2.2L296,30.6L296,30.6z M307.3,30
		H307c-0.2-1.4-0.2-1.5-2.8-1.5c-0.7,0-0.9,0-1.3,0.1l0,2.1c0,0.9,0.1,1.5,0.2,1.9c0.7,0.1,1.5,0.2,2.3,0.2c2.5,0,2.9-1.2,3.1-1.8
		h0.4c-0.1,0.9-0.2,1.4-0.7,2.5l-2.4-0.1l-1.9,0l-3.8,0.1l0-0.4c0.6-0.1,0.9-0.2,1-0.7c0.2-0.9,0.2-3.7,0.2-4.8l-0.1-2.8
		c-0.1-0.9-0.2-1-0.8-1.1c-0.1,0-0.2,0-0.2,0v-0.3h5.2l2.8-0.1c0,1.1-0.2,2.2-0.4,2.2c-0.1,0-0.2,0-0.3,0c0-0.2,0.1-0.4,0.1-0.6
		c0-0.6-0.7-0.9-2.3-0.9c-0.7,0-1.4,0.1-2.1,0.2c-0.1,1-0.2,1.6-0.2,2.5l0,1.4l1.5,0c1.1,0,2-0.1,2.1-0.2c0.3-0.1,0.4-0.9,0.4-0.9
		h0.4L307.3,30L307.3,30z M5,8.7C4.8,8.7,4.6,8.9,4.6,9.2c-0.2,0-0.3,0-0.5,0.1S3.8,9.6,3.7,9.8l0,0.2c0,0.3,0.1,0.6,0.5,0.8l0,0.1
		c0,0.2,0.1,0.4,0.2,0.5c0.1,0.1,0.2,0.1,0.3,0.2l-0.1,0.2l0,0.3c0.1,0.3,0.3,0.6,0.8,0.6c0,0.1,0.1,0.2,0.2,0.3
		c0.2,0.2,0.4,0.3,0.8,0.2c0,0.1-0.1,0.2-0.1,0.3c0,0.2,0.1,0.4,0.2,0.5C7.1,14.4,7.6,14.2,8,14c0.2,0.2,0.4,0.3,0.7,0.2
		c0.5-0.1,0.7-0.4,0.8-0.7l0.4-0.1l0.1,0c0.2-0.1,0.3-0.4,0.5-0.7c0.3,0.3,0.6,0.7,0.7,0.8c0.1,0.1,0.2,0.4,0.6,1
		c0.1,0.2,0.2,0.4,0.4,0.6c-0.1,0.6-0.4,1.1-0.8,1.3L11,16.6c-0.6,0.3-1.2,0.6-1.6,0.9c-0.3,0-0.5,0.1-0.6,0.1
		c-0.2-0.1-0.4-0.1-0.6-0.1c-0.8,0-1.1,0.4-1.2,0.7c-0.3,0.5-0.2,1.1,0,1.4c0.3,0.4,0.7,0.6,1.2,0.6c0.2,0,0.4-0.1,0.5-0.1
		c0.2,0.1,0.4,0.1,0.5,0.1c0.2,0,0.4-0.1,0.6-0.1c0.2,0.1,0.3,0.1,0.5,0.1s0.4-0.1,0.5-0.1c0.1,0.1,0.3,0.1,0.5,0.1
		c0.2,0,0.4,0,0.6-0.1c0.2,0.1,0.3,0.1,0.5,0.1c0.2,0,0.3-0.1,0.5-0.1c0.1,0.1,0.3,0.1,0.5,0.1c0.2,0,0.4,0,0.6-0.1
		c0.2,0.1,0.3,0.1,0.5,0.1c0.2,0,0.3-0.1,0.5-0.1c0.1,0.1,0.3,0.1,0.5,0.1c0.2,0,0.4,0,0.6-0.1c0.2,0.1,0.3,0.1,0.5,0.1
		c0.2,0,0.3-0.1,0.5-0.1c0.1,0.1,0.3,0.1,0.5,0.1c0.2,0,0.4,0,0.6-0.1c0.2,0.1,0.4,0.1,0.6,0.1c0.6,0,1-0.2,1.2-0.7
		c0.2-0.5,0.1-1.1-0.1-1.4c-0.3-0.4-0.7-0.6-1.2-0.6c-0.2,0-0.4,0.1-0.5,0.1l-0.2-0.1c-0.2-0.3-0.6-0.5-1.4-0.8l-0.1,0
		c-0.8-0.3-1-0.6-1.1-0.9l0,0c0-0.1-0.2-0.6-0.2-1.1c0-0.4,0.1-1,0.3-1.4c0.2-0.2,0.4-0.4,0.6-0.6c0.1,0.2,0.1,0.4,0.2,0.5l0,0l0,0
		l0.4,0.2l0-0.1c0.2,0.4,0.4,0.7,0.8,0.8c0.1,0,0.3,0,0.4-0.1c0.2,0.1,0.3,0.3,0.6,0.2c0.2,0,0.4-0.1,0.5-0.2
		c0.5,0.1,0.7-0.1,0.9-0.3l0.1-0.4v0c0-0.2-0.1-0.3-0.1-0.4l0.1,0c0.1-0.1,0.2-0.1,0.3-0.3c0.4,0,0.6-0.2,0.6-0.4c0,0,0-0.1,0-0.1
		l0,0c0.2,0.1,0.4,0.1,0.7,0c0.2-0.1,0.3-0.2,0.3-0.4c0.2,0,0.4,0,0.6-0.1c0.2-0.1,0.3-0.3,0.3-0.6l0-0.1c0-0.2-0.1-0.7-0.8-0.9
		c0-0.2-0.1-0.3-0.2-0.5c-0.3-0.3-0.7-0.3-1-0.2c0.1-0.1,0.2-0.1,0.2-0.2c0.4,0.1,1,0.2,1.2-0.4c0-0.1,0-0.2,0.1-0.3
		c0,0,0-0.2-0.1-0.3c0.3-0.3,0.4-0.6,0.4-0.8l-0.1-0.4c-0.2-0.4-0.5-0.5-0.9-0.5c0-0.1,0-0.2-0.1-0.2c0,0,0,0,0,0l0.1-0.3l-0.1-0.3
		c-0.1-0.2-0.2-0.4-0.4-0.5c-0.2-0.1-0.4-0.1-0.6,0c0.2-0.2,0.3-0.3,0.3-0.5l0-0.1c0-0.2-0.1-0.4-0.2-0.5c-0.2-0.3-0.6-0.4-1-0.3
		c-0.1-0.1-0.2-0.2-0.4-0.2c-0.4-0.1-0.7,0.1-0.9,0.3l-0.2-0.1l0,0l-0.1,0c0-0.2-0.1-0.4-0.2-0.6c-0.2-0.2-0.5-0.3-0.7-0.3
		c-0.1,0-0.2,0-0.3,0.1c0.1-0.2,0.2-0.3,0.2-0.5L17.2,2c-0.1-0.2-0.3-0.3-0.4-0.4c0-0.7-0.4-0.9-0.6-0.9c-0.3-0.1-0.7,0-0.9,0.4
		C15.1,1,15.1,1,15,1c-0.2-0.2-0.3-0.3-0.5-0.3c-0.6-0.1-0.8,0.4-0.9,0.8c-0.1,0-0.3,0-0.4,0.1L13,1.7l-0.1,0
		c-0.1-0.6-0.4-0.8-0.6-0.8c-0.1,0-0.3,0-0.4,0c-0.5-0.5-0.9-0.5-1.1-0.4l0,0c-0.3,0.1-0.4,0.4-0.4,0.7l0.1,0.4
		c-0.1,0-0.1,0.1-0.2,0.2C9.9,1.7,9.6,1.8,9.4,2C9.1,2.1,9,2.4,9,2.7c0,0.2,0.1,0.4,0.1,0.6C9,3.4,8.9,3.5,8.9,3.7l0,0.1
		c0,0.1,0,0.1,0.1,0.2C8.7,4,8.5,4.1,8.4,4.3C8.3,4.4,8.2,4.5,8.2,4.7C8,4.3,7.8,4.1,7.5,4.1c-0.2,0-0.3,0.1-0.4,0.2
		C6.8,4.1,6.5,4.1,6.3,4.2C6.1,4.3,5.8,4.5,5.8,5.1c0,0.1,0,0.2,0,0.3C5.7,5.4,5.6,5.5,5.6,5.7c0,0,0,0,0,0l0,0.2
		c0,0.2,0.1,0.3,0.2,0.4c-0.1,0-0.3,0.2-0.4,0.4C4.9,6.8,4.7,7,4.5,7.3c0,0-0.1,0.4-0.1,0.4l0,0l0.1,0.4C4.6,8.2,4.8,8.4,5,8.5
		C5,8.5,5,8.5,5,8.7C5,8.7,5,8.7,5,8.7L5,8.7z M5.4,8.4L5.2,8.3C5,8.2,4.9,8.1,4.8,8L4.8,7.7l0.1-0.3C4.9,7.2,5.1,7,5.3,7.1l0.1,0
		l0-0.1c0-0.1,0.1-0.3,0.3-0.3l0.5-0.1L6,6.3C5.9,6.2,5.8,6.1,5.8,5.9c0,0,0-0.2,0-0.2c0-0.1,0.1-0.2,0.3-0.2l0.1,0L6.1,5
		c0-0.3,0.1-0.5,0.3-0.6c0.2-0.1,0.3,0,0.5,0.1l0.1,0.1l0.1-0.1c0.1-0.1,0.2-0.2,0.3-0.2C7.7,4.4,7.9,4.5,8,5l0,0.1
		C8,5.1,8.2,5,8.2,5s0.2,0.1,0.2,0.1L8.5,5l0-0.2l0,0c0-0.1,0-0.2,0.1-0.3c0.2-0.2,0.3-0.2,0.5-0.2l0.2,0L9.3,4l0-0.3
		c0,0,0-0.1,0-0.1c0-0.1,0.1-0.2,0.2-0.3l0.1-0.1L9.5,3.2C9.4,3.1,9.3,2.9,9.3,2.7c0-0.2,0.1-0.4,0.2-0.5C9.7,2.1,9.9,2,10.2,2.1
		l0.1,0.1l0.1-0.1c0-0.1,0.1-0.2,0.2-0.2l0.1,0l0-0.1l-0.1-0.4c0-0.1,0-0.3,0.3-0.4c0.3-0.1,0.5,0,0.9,0.3l0.1,0.1l0.1,0
		c0.1,0,0.2,0,0.3,0c0.2,0.1,0.3,0.3,0.4,0.6l0,0.1l0.1,0l0.1,0L13,2.1l0.1,0L13.2,2l0.2-0.2c0.1-0.1,0.2-0.1,0.3,0l0.1,0l0-0.1
		C13.9,1.3,14.1,1,14.4,1c0.2,0,0.3,0.1,0.4,0.2l0,0l0.1,0c0.1,0,0.2,0,0.2,0.1l0.1,0.1l0.1-0.1C15.6,1.1,15.8,1,16.1,1
		c0.2,0,0.4,0.2,0.4,0.6c0,0,0,0.2,0,0.2l0.1,0c0.1,0,0.2,0.1,0.3,0.3L17,2.4c0,0.1-0.1,0.3-0.3,0.5l-0.1,0.1l0,0.1l0.1,0.4l0.2-0.2
		c0.2-0.1,0.3-0.2,0.5-0.2c0.2,0,0.3,0.1,0.5,0.2C18,3.4,18,3.5,18,3.7l0,0.2l0.2,0l0.1,0c0,0,0.2,0.1,0.2,0.1l0.1,0.1L18.7,4
		c0.2-0.2,0.4-0.4,0.7-0.3c0.1,0,0.2,0.1,0.3,0.2L19.8,4l0.1,0c0.4-0.1,0.6-0.1,0.8,0.2c0.1,0.1,0.1,0.2,0.1,0.3c0,0,0,0.1,0,0.1
		c0,0.1-0.1,0.2-0.3,0.4L20.4,5l0.1,0.5l0.2-0.1c0.2-0.1,0.4-0.1,0.5,0c0.1,0.1,0.2,0.2,0.3,0.3L21.6,6c0,0-0.1,0.2-0.1,0.2l0,0.1
		l0.1,0.1l0.1,0.1c0,0,0,0.1,0,0.2l0,0.2l0.2,0c0.4-0.1,0.6,0,0.7,0.3l0.1,0.4c0,0.2-0.1,0.4-0.4,0.5L22.1,8l0,0.1l0.1,0.2
		c0,0,0,0.2,0,0.2c-0.2,0.3-0.6,0.2-1,0.2l-0.1,0L21,8.8c0,0.1-0.1,0.2-0.3,0.3l-0.1,0l0.1,0.2l0,0.1c0,0,0,0.1,0,0.1l0,0.3l0.3-0.2
		c0.4-0.2,0.7-0.3,0.9,0c0.1,0.1,0.2,0.2,0.2,0.4v0.1l0.1,0c0.4,0.1,0.6,0.3,0.6,0.6c0,0,0,0.1,0,0.1c0,0.2-0.1,0.3-0.2,0.4
		c-0.2,0.1-0.3,0.1-0.5,0.1l-0.1,0l0,0.1c0,0.2-0.1,0.3-0.2,0.3c-0.2,0.1-0.4,0-0.5,0l-0.1,0l-0.1,0.1l-0.1,0.1l0,0.1l0,0.1
		c-0.1,0.2-0.2,0.2-0.4,0.2h-0.1l0,0.1c0,0.1-0.1,0.1-0.1,0.2c0,0-0.2,0-0.2,0l-0.1,0l-0.1,0.2l0.1,0.1c0.1,0.1,0.1,0.2,0.1,0.3
		l-0.1,0.3c-0.1,0.1-0.2,0.2-0.6,0.2l-0.1,0L19,13.7c-0.1,0.1-0.2,0.2-0.4,0.2c-0.2,0-0.3-0.1-0.5-0.2l-0.1-0.1L18,13.6
		c-0.1,0.1-0.2,0.1-0.3,0.1c-0.3,0-0.4-0.3-0.6-0.6l0,0H17l-0.4-0.2c0,0-0.1-0.2-0.2-0.6l0-0.2l-0.2,0.1c-0.3,0.2-0.6,0.5-0.8,0.8
		C15,13.5,15,14.1,15,14.6c0,0.6,0.1,1.1,0.2,1.3l0,0c0.2,0.3,0.4,0.7,1.3,1l0.1,0c0.8,0.3,1.1,0.5,1.3,0.8l0,0l0.4,0.1l0.1,0
		c0.1-0.1,0.3-0.1,0.5-0.1c0.4,0,0.7,0.2,1,0.5c0.2,0.2,0.2,0.7,0,1c-0.2,0.3-0.5,0.5-1,0.5c-0.2,0-0.4,0-0.6-0.1l-0.1,0l-0.1,0
		c-0.2,0.1-0.3,0.1-0.5,0.1c-0.2,0-0.3-0.1-0.4-0.1l-0.1,0l-0.1,0c-0.1,0.1-0.3,0.1-0.5,0.1c-0.1,0-0.3-0.1-0.4-0.1l-0.1,0l-0.1,0
		c-0.1,0-0.2,0.1-0.5,0.1c-0.2,0-0.3-0.1-0.4-0.1l-0.1,0l-0.1,0c-0.1,0.1-0.3,0.1-0.5,0.1c-0.1,0-0.3-0.1-0.4-0.1l-0.1,0l-0.1,0
		c-0.1,0-0.2,0.1-0.5,0.1c-0.1,0-0.3,0-0.4-0.1l-0.1,0l-0.1,0c-0.1,0.1-0.3,0.1-0.5,0.1c-0.1,0-0.3-0.1-0.4-0.1l-0.1,0l-0.1,0
		c-0.1,0-0.2,0.1-0.5,0.1c-0.1,0-0.3,0-0.4-0.1l-0.1,0l-0.1,0c-0.1,0.1-0.3,0.1-0.5,0.1c-0.1,0-0.3-0.1-0.4-0.1l-0.1,0l-0.1,0
		c-0.2,0.1-0.4,0.1-0.5,0.1c-0.2,0-0.3-0.1-0.5-0.1l-0.1,0l-0.1,0c-0.2,0.1-0.3,0.1-0.5,0.1c-0.4,0-0.7-0.2-1-0.5
		c-0.2-0.2-0.2-0.7,0-1.1c0.1-0.2,0.4-0.5,1-0.5c0.2,0,0.4,0,0.5,0.1l0.1,0l0.1,0c0.1-0.1,0.3-0.1,0.5-0.1l0.1,0l0,0
		c0.4-0.3,1.2-0.7,1.6-0.9l0.2-0.1c0.5-0.3,0.9-0.8,1-1.5l0-0.1l-0.4-0.7l-0.6-1c-0.1-0.2-0.5-0.8-0.9-1.1l-0.2-0.1l-0.1,0.2
		C10,13,9.8,13.2,9.7,13.3l-0.2,0l-0.1-0.2l-0.1,0.2C9.1,13.6,9,13.9,8.6,14c-0.2,0-0.4,0-0.5-0.2L8,13.7l-0.1,0.1
		c-0.4,0.2-0.8,0.3-0.9,0.1c-0.1-0.1-0.1-0.2-0.1-0.3c0-0.2,0.1-0.4,0.3-0.6l-0.2-0.2C6.6,13,6.3,13,6,12.8
		c-0.1-0.1-0.1-0.2-0.2-0.3l0-0.1H5.7c-0.4,0-0.6-0.1-0.7-0.4l0-0.2l0-0.2l0.3-0.2L5,11.3c-0.1,0-0.2-0.1-0.4-0.2
		c-0.1-0.1-0.1-0.2-0.1-0.3l0.1-0.2l-0.1-0.1C4.2,10.4,4,10.2,4,10c0,0,0-0.1,0-0.1c0-0.1,0.1-0.2,0.2-0.3c0.1-0.1,0.3-0.1,0.4-0.1
		l0.2,0l0-0.2c0-0.1,0.1-0.3,0.3-0.4c0,0,0.3,0,0.3,0l0.1,0L5.4,8.8c0,0-0.1-0.2-0.1-0.3S5.4,8.3,5.4,8.4L5.4,8.4z"/>
	<path class="st0" d="M11.8,19.1c0.1,0.2,0.4,0.3,0.6,0.3c0.3,0,0.4-0.1,0.4-0.1c0-0.1,0.1-0.1,0.2,0c0,0,0.2,0.1,0.4,0.1
		c0.1,0,0.2,0,0.3,0c0,0-0.1-0.1-0.1-0.1l-0.6-0.9c-0.1-0.2-0.4-0.3-0.6-0.3c-0.3,0-0.4,0.1-0.4,0.1c0,0.1-0.1,0.1-0.2,0
		c0,0-0.2-0.1-0.4-0.1c-0.1,0-0.2,0-0.3,0c0,0,0.1,0.1,0.1,0.1L11.8,19.1L11.8,19.1z M7.5,19.1c-0.1-0.1-0.1-0.5,0-0.7
		c0.1-0.2,0.3-0.3,0.7-0.3c0.3,0,0.6,0.1,0.7,0.3l0.6,0.9c0,0,0.1,0.1,0.1,0.1c-0.1,0-0.2,0.1-0.3,0.1c-0.3,0-0.5-0.1-0.5-0.1
		c-0.1,0-0.1,0-0.2,0c0,0-0.1,0.1-0.4,0.1C7.9,19.5,7.7,19.4,7.5,19.1L7.5,19.1z M10.9,6c0.2-0.1,0.3-0.2,0.5-0.3
		c0.2-0.1,0.5-0.2,0.7-0.3c-0.2-0.5-0.6-0.5-0.7-0.5l-0.2,0c0,0,0,0,0,0c0,0-0.2-0.1-0.2-0.1c0,0,0,0.2,0,0.2l0,0.2l0,0.1
		C10.8,5.3,10.6,5.6,10.9,6L10.9,6z M14,4.8C14,4.8,14,4.8,14,4.8L14,4.8z M8,7.8l0,0.1L7.7,8.1c0,0-0.1,0-0.1,0
		c-0.1,0-0.2,0.1-0.3,0.2c0,0.2,0.1,0.2,0.2,0.3l0.1,0.2c0,0,0,0.1,0,0.1c0.2,0,0.3,0,0.6,0.1c0,0,0.1,0,0.1-0.1
		C8.6,8.8,8.9,9,9,9.1C9,9,9.1,8.8,9.3,8.9c0.2,0.1,0.4,0.2,0.5,0.4c0-0.1,0.1-0.1,0.1-0.1l0-0.1c0-0.1,0-0.2,0.1-0.2l0.1-0.1
		C10,8.7,9.9,8.6,9.9,8.5C9.6,8.6,9.1,8.7,8.8,8.6C8.6,8.5,8.5,8.3,8.5,8.1C8.3,8,8.2,7.9,8.1,7.7C8,7.7,8,7.7,8,7.8L8,7.8z"/>
	<path class="st0" d="M7.3,9.4c-0.1,0-0.2,0-0.2,0.1s0,0.1,0,0.2l0,0.1l0,0.2l0.1,0.3c0.1,0.2,0.3,0.3,0.4,0.4l0.5-0.9
		C8.1,9.7,8,9.6,8,9.4c0-0.1,0-0.1,0.1-0.2C7.8,9.1,7.6,9.2,7.5,9.3L7.4,9.4L7.3,9.4L7.3,9.4z M16.1,8.3L16.1,8.3
		c0.2-0.2,0.5-0.4,0.7-0.5c-0.1-0.2-0.2-0.4-0.2-0.5c-0.1,0.2-0.3,0.3-0.5,0.4c0,0,0.1,0.1,0.1,0.1c0,0,0,0.1,0,0.1
		C16.2,8.1,16.2,8.2,16.1,8.3C16.1,8.3,16.1,8.3,16.1,8.3L16.1,8.3z M18.3,9C18.3,9,18.3,9,18.3,9L18.3,9L18.3,9L18.3,9z"/>
	<path class="st0" d="M17.2,8.8c0,0.1-0.4,0.3-0.8,0.4c-0.2,0.1-0.3,0.1-0.5,0.2c-0.1,0.1-0.2,0.2-0.4,0.4c0.2,0.1,0.7,0.2,0.8,0.2
		l0-0.1c0-0.1,0-0.2,0.1-0.2l0.3,0c0.2,0.1,0.5,0.1,0.7,0l0-0.1l-0.1-0.2c0,0,0,0,0-0.1s0,0,0.1,0l0.3,0c0.1,0,0.2,0,0.3,0
		c0,0,0,0,0.1,0c0.1,0,0.1,0,0.1-0.1l0-0.1l0-0.2c0-0.1,0.1-0.2,0.2-0.2c0.2-0.1,0.3-0.2,0.2-0.4c0-0.1-0.3,0-0.4,0l-0.3,0l-0.1-0.2
		c0,0,0-0.1-0.1-0.1c-0.1,0-0.2,0.1-0.3,0.1c-0.1,0.1-0.2,0.1-0.3,0.1l-0.1-0.1l0,0c0,0-0.2,0-0.5,0.4L16,8.7c0,0-0.1,0-0.2-0.1
		c-0.2,0-0.3,0.4-0.4,0.8L16.3,9C16.6,8.9,17.1,8.8,17.2,8.8L17.2,8.8z M8.5,6.8l-0.1,0l-0.1,0c0,0-0.1,0-0.1,0l0,0l0,0.2
		c0,0.3,0.1,0.7,0.4,0.9c0,0,0.1,0,0.2-0.1c0.3-0.3,0.5-0.8,0.5-1C9,6.7,8.6,6.7,8.5,6.8z M21,6.6l-0.1,0.1c0.1,0.1,0.3,0.2,0.3,0.4
		l0,0.1c0,0.4-0.6,0.4-1,0.4c0,0.1,0.1,0.2,0.1,0.3c0,0,0,0.1,0,0.1c-0.2,0.5-1,0.4-1.4,0.4l0,0.1c0,0.1,0,0.1,0,0.1
		c0.1,0,0.2,0,0.2,0.1c0,0,0,0,0,0.1c0.4,0,0.7,0,0.9,0.1c0.1-0.1,0.2-0.1,0.3-0.1c0.2,0,0.4,0,0.4-0.1l0-0.1c0-0.1,0-0.2,0.1-0.3
		c0.1-0.1,0.2,0,0.5,0c0.2,0.1,0.6,0.1,0.7,0c0,0,0-0.1-0.1-0.2c-0.1-0.1-0.1-0.2-0.1-0.3l0.2-0.1c0.3-0.2,0.4-0.3,0.3-0.6
		C22.1,7,22,7,21.8,7.1c-0.1,0-0.3,0.1-0.4-0.1l0-0.2c0-0.1,0-0.1,0-0.2c0,0-0.1-0.1-0.3-0.1L21,6.6L21,6.6z M16.5,6.9L16.6,7
		c0-0.1,0.1-0.2,0.1-0.3c0.2-0.3,0.6-0.5,0.7-0.4c0.2-0.1,0.5-0.2,0.8-0.2c0.1-0.1,0.2-0.4,0.4-0.5c0,0,0-0.1-0.1-0.2
		c-0.1-0.1-0.3,0-0.5,0.1c-0.1,0.1-0.2,0.1-0.3,0.1c0,0-0.1-0.1-0.1-0.1c0-0.1-0.1-0.2-0.2-0.3l-0.2,0.1c0,0.1,0.1,0.1,0.1,0.2
		c0,0,0,0.1,0,0.1C17.1,5.8,16.9,6,16.8,6c0,0.1,0,0.1,0,0.2C16.8,6.5,16.7,6.7,16.5,6.9L16.5,6.9z"/>
	<path class="st0" d="M15.4,5.4c0.1-0.4-0.1-0.6-0.1-0.8l0-0.1c0-0.1,0-0.1-0.1-0.1c-0.1,0-0.2,0-0.2,0.1l-0.1,0
		c-0.2,0.1-0.5,0.2-0.6,0.6C14.6,5.2,15.2,5.4,15.4,5.4C15.3,5.4,15.4,5.4,15.4,5.4L15.4,5.4z M18.7,6.4L18.7,6.4l-0.3,0.1
		c0,0,0,0,0,0c-0.1,0-0.5-0.1-0.8,0.1c0,0.6,0.3,0.8,0.8,1c0.2-0.2,0.3-0.4,0.3-0.7l0-0.1l0-0.1l0-0.1C18.7,6.5,18.7,6.4,18.7,6.4
		L18.7,6.4z M15.6,10.4c0.1,0,0.1-0.1,0.1-0.1c-0.1,0-0.3-0.1-0.4-0.1c-0.1,0.2-0.2,0.4-0.3,0.5c-0.1,0.3-0.1,0.7-0.1,1l0,0.1
		l0.4-0.4c-0.1-0.2-0.2-0.5,0-0.7L15.6,10.4z"/>
	<path class="st0" d="M17.8,9.9c0.1-0.1,0.1-0.1,0.2-0.2l0,0c0,0,0,0,0-0.1c-0.1,0-0.2,0-0.3,0c0,0,0,0.1,0,0.1c0,0.1,0,0.1-0.1,0.2
		c-0.3,0.3-0.7,0.2-0.9,0.1l0,0c0,0.1,0,0.2-0.2,0.3c-0.1,0-0.2,0-0.4,0c0,0.2-0.2,0.3-0.3,0.3l-0.2,0.1c-0.1,0.1-0.1,0.2,0,0.3
		c0.1-0.1,0.3-0.3,0.4-0.3c0.1-0.1,0.3-0.2,0.4-0.2c0.1,0,0.4-0.2,0.5-0.1s-0.3,0.3-0.4,0.3c-0.2,0.1-0.3,0.1-0.3,0.2L16,11.5
		c0.1,0,0.3,0,0.4,0l0.2-0.1c0.1,0,0.3-0.1,0.4-0.1l0,0L17,11.2c0,0-0.1-0.1-0.1-0.2c0,0,0-0.1,0-0.1l0.3-0.1c0.3,0,0.5-0.1,0.5-0.3
		l0,0c0-0.1,0-0.1-0.1-0.1c0,0-0.1-0.1-0.1-0.2c0,0,0,0,0-0.1L17.8,9.9L17.8,9.9z M20.2,5.7c0-0.1-0.1-0.1-0.1-0.1
		c-0.2,0-0.3,0.1-0.5,0.3c-0.1,0.1-0.2,0.2-0.3,0.2L19.1,6c-0.1-0.1-0.2-0.1-0.3-0.1S18.6,6,18.5,6.1c0.1,0,0.2-0.1,0.4,0
		c0.1,0.1,0.1,0.3,0,0.4c0,0,0,0.1,0,0.1c0,0.1,0,0.2,0,0.3c0.3-0.2,0.8-0.5,0.8-0.5c0.1,0-0.3,0.5-0.8,0.8l-0.2,0.1
		c-0.1,0.1-0.1,0.2-0.3,0.3c0,0.1,0,0.2-0.1,0.3c0.1,0,0.1,0,0.2,0.1l0.1,0c0.2,0,1,0.1,1.1-0.2c0-0.1-0.1-0.2-0.1-0.3
		c-0.1-0.1-0.1-0.1-0.1-0.2c0-0.1,0.1-0.1,0.3-0.1c0.7,0,0.8-0.1,0.8-0.2c0-0.2-0.1-0.2-0.2-0.2l-0.1-0.1c0,0,0-0.1,0-0.1
		c0-0.1,0.2-0.2,0.3-0.3l0.1-0.1c0,0,0,0,0.1,0c0.2-0.1,0.3-0.3,0.2-0.5c0-0.1-0.1-0.1-0.1-0.1c-0.2-0.1-0.4,0.1-0.6,0.1l-0.2,0
		C20.3,5.8,20.2,5.8,20.2,5.7L20.2,5.7z M20,9.2C19.9,9.1,19.5,9,19,9c0,0.1-0.1,0.4,0,0.7c0,0.2,0.1,0.4,0.2,0.5l0,0.1
		c0.6-0.1,0.8-0.5,0.8-0.6l0-0.1l0.1-0.1l0.1-0.1c0,0-0.1-0.1-0.1-0.1L20,9.2L20,9.2z M14.8,9.6L14.8,9.6l0.3-0.1
		c0-0.2,0.1-0.4,0.2-0.6c-0.2,0.1-0.4,0.2-0.5,0.2C14.8,9.2,14.8,9.3,14.8,9.6L14.8,9.6L14.8,9.6z"/>
	<path class="st0" d="M15.9,7.9L15.9,7.9l-0.2-0.1c0,0-0.1,0-0.1,0s0,0,0.1-0.1l0.2-0.2c0.1-0.1,0.5-0.3,0.5-0.4l-0.1-0.1l-0.1-0.1
		c0-0.1,0-0.1,0.1-0.2c0.2-0.2,0.4-0.4,0.3-0.6l-0.1,0l-0.2,0c-0.1-0.1-0.1-0.2-0.1-0.3c0-0.1,0-0.3-0.1-0.3c0,0-0.1,0-0.4,0.2
		l-0.1,0.1c-0.1,0-0.2,0-0.2,0l-0.1,0c-0.2,0-0.2,0.4-0.3,0.5L15,6.4c-0.1,0.1-0.1,0.1-0.2,0l-0.1,0c-0.1,0-0.2,0.1-0.2,0.2
		c0,0.1,0,0.1,0,0.2c0,0.2,0.1,0.4,0.1,0.6c0,0.1,0,0.1,0,0.2c0,0,0,0.1-0.1,0.1l-0.1,0c0,0-0.1,0-0.1,0c0,0.1-0.1,0.1-0.1,0.2
		c0,0.2,0.1,0.5,0.2,0.7l0.1-0.2c0.1-0.3,0.6-1.1,0.7-1.1S15,8.1,14.9,8.4c0,0.2-0.1,0.3-0.1,0.4C15.1,8.7,16,8.2,15.9,7.9L15.9,7.9
		z M11.3,8.9c0-0.2,0.1-0.3,0.2-0.4c-0.1-0.1-0.1-0.2-0.1-0.4c0-0.1,0.1-0.3,0.2-0.4c-0.1-0.1-0.2-0.1-0.3,0c-0.1,0-0.2,0.1-0.2,0
		c0,0,0,0,0-0.1c-0.1-0.2-0.2-0.4-0.3-0.5h-0.1c-0.2,0.1-0.2,0.4-0.2,0.6c0,0.1,0,0.2-0.1,0.3l-0.1,0.1c-0.1,0-0.1,0-0.1,0.1
		c0,0.1,0.1,0.3,0.2,0.4c0.1,0.1,0.1,0.1,0.1,0.2L10.2,9c0,0.1,0,0.1,0,0.2c0,0,0,0,0,0.1c0.1,0.1,0.3,0.4,0.3,0.7c0,0,0,0,0,0
		l0.2,0c0,0,0,0,0.1,0.1l-0.1-0.4c-0.1-0.6,0-0.8,0-0.9s0.1,0.2,0.2,0.9c0,0.2,0.1,0.5,0.2,0.7c0.1,0,0.1,0.1,0.2,0.1
		c0.1-0.1,0.4-0.3,0.4-0.5l0-0.1c0-0.1,0-0.2,0-0.2c0-0.1,0-0.2,0.1-0.3C11.7,9.3,11.3,9.2,11.3,8.9L11.3,8.9z"/>
	<path class="st0" d="M12.9,13.5c0-0.1,0-0.2,0-0.3c0-0.2,0-0.5-0.1-1c-0.2-1.1-0.8-1.3-1.1-1.4l0,0c0.1,0.2,0.1,0.5,0.1,0.7l0,0.1
		C11.8,12.6,12.6,13.3,12.9,13.5L12.9,13.5z M9.8,10.5l0.5,0.4l0,0c0.2,0.2,0.5,0.2,0.5,0.2l0-0.1c0-0.6-0.2-0.8-0.2-0.8
		c0,0-0.1,0.1-0.1,0.1s-0.1,0.1-0.2,0.1s-0.1-0.1-0.1-0.1c0-0.4-0.2-0.7-0.3-0.8c0,0-0.1,0.1-0.1,0.2c0,0.1-0.1,0.1-0.2,0.1
		S9.7,9.7,9.7,9.6c0-0.1-0.1-0.4-0.4-0.5l0,0.1c0,0.1-0.1,0.2-0.3,0.2l-0.1,0C8.8,9.3,8.6,9.1,8.5,9.2c0,0-0.1,0-0.1,0.1
		c-0.1,0.2,0,0.3,0.1,0.4l0.1,0.2c0,0.1-0.1,0.2-0.2,0.2c0,0-0.1,0.1-0.1,0.1c0,0.1,0.1,0.2,0.3,0.2l0.2,0.1c0.1,0.1,0,0.2-0.1,0.3
		c0,0-0.1,0.1-0.1,0.1C8.8,11,9,11.1,9.2,11.1l0,0l0.2,0c0.1,0,0.3,0,0.3,0.1l-0.1,0.2c0,0-0.1,0.1-0.1,0.1c0.1,0.2,0.5,0.1,1,0
		c0-0.1-0.2-0.3-0.3-0.4l0,0C10,11,9.8,10.9,9.7,10.7c0,0-0.4-0.4-0.4-0.5S9.8,10.5,9.8,10.5L9.8,10.5z M13.1,10.4
		c0,0.2,0.1,0.6,0.3,1l0.5,0.8c0.1-0.3,0.2-0.7,0.2-0.9l0-0.2c0-0.2,0-0.4-0.1-0.6l-0.1,0C13.6,10.5,13.5,10.5,13.1,10.4L13.1,10.4z
		 M14.4,7.3c-0.1-0.2-0.2-0.4-0.2-0.6c0-0.1,0-0.2,0-0.3c0-0.1-0.1-0.2-0.2-0.3c0,0,0,0-0.1,0.1c-0.1,0.1-0.1,0.2-0.3,0.1l-0.2-0.2
		c-0.2-0.2-0.4-0.5-0.6-0.4c-0.2,0-0.2,0.3-0.2,0.6c0,0.2,0,0.3-0.1,0.3c-0.1,0-0.2,0.1-0.2,0.2c0,0.2,0.1,0.3,0.2,0.4l0,0
		c0.3,0.1,0.5,0.4,0.6,0.7c0.1-0.1,0.4-0.2,0.5-0.1c0.2,0.2,0.3,0.6,0.3,0.8l0,0c0.1,0,0.1,0,0.2,0c-0.1-0.2-0.3-0.6-0.3-0.9
		c0-0.1,0-0.3,0.1-0.4C14.3,7.4,14.3,7.4,14.4,7.3L14.4,7.3z"/>
	<path class="st0" d="M14.1,9.8C14.3,9.3,14.3,9,14.3,9l-0.1,0c-0.1,0-0.2,0-0.3,0c0,0-0.1-0.1-0.1-0.1c0-0.1-0.1-0.6-0.2-0.7
		c0,0-0.2,0.1-0.2,0.1c-0.1,0.1-0.2,0.1-0.3,0.1c0,0-0.1-0.1-0.1-0.1c-0.1-0.3-0.4-0.6-0.5-0.6c-0.1,0-0.1,0.2-0.1,0.2
		c0,0.1,0,0.1-0.1,0.1s-0.1,0-0.2,0s-0.2-0.2-0.4,0c-0.2,0.2,0,0.5,0,0.5c0,0,0,0.1,0,0.1c0,0,0,0.1-0.1,0.1
		c-0.1,0.1-0.2,0.2-0.2,0.3C11.6,9,11.7,9,12,9.1c0.1,0,0.3,0,0.3,0.2c0,0.1,0,0.2-0.1,0.2c-0.1,0.1-0.1,0.1-0.1,0.3
		c0,0.1,0.1,0.1,0.1,0.1c0.1,0.1,0.4,0,0.5-0.1L13,9.8c0,0,0,0,0.1,0s0,0,0,0.1c0,0,0,0.2,0,0.2l0.1,0.1c0.3,0.1,0.4,0.1,0.6,0.1
		l0,0l-0.1-0.1l0,0c-0.1-0.2-0.2-0.4-0.4-0.5c-0.3-0.2-0.7-0.5-0.6-0.6s0.5,0.2,0.8,0.4c0.2,0.1,0.3,0.3,0.4,0.3
		C14,9.7,14.1,9.8,14.1,9.8L14.1,9.8z M14,17.9L14,17.9c0-0.1,0-0.3-0.1-0.4c0,0-0.1-0.1-0.2-0.1c-0.2,0-0.3,0.2-0.4,0.3
		c0.1,0,0.1,0,0.2,0C13.7,17.8,13.9,17.9,14,17.9L14,17.9z M17.2,18.4c-0.1-0.2-0.4-0.3-0.6-0.3c-0.3,0-0.4,0.1-0.4,0.1
		c0,0.1-0.1,0.1-0.2,0c0,0-0.2-0.1-0.4-0.1c-0.1,0-0.2,0-0.3,0.1c0,0,0.1,0.1,0.1,0.1l0.6,0.9c0.1,0.2,0.4,0.3,0.6,0.3
		c0.3,0,0.4-0.1,0.4-0.1c0-0.1,0.1-0.1,0.2,0c0,0,0.2,0.1,0.4,0.1c0.1,0,0.2,0,0.3-0.1c0,0-0.1-0.1-0.1-0.1
		C17.6,19,17.4,18.7,17.2,18.4L17.2,18.4z M11.3,17.8l0.1,0c0.2,0,0.4,0,0.5,0.1c0.1,0,0.1-0.1,0.2-0.1l0-0.2
		C12,17.7,11.6,17.6,11.3,17.8L11.3,17.8z M8.2,12.8c0-0.1,0.3-0.3,0.5-0.5C9,12.1,9.1,12,9.5,11.9c-0.1,0-0.2-0.1-0.2-0.2
		c0,0,0-0.1,0-0.1c0-0.1,0-0.1,0.1-0.2l-0.2,0c-0.1,0-0.1,0-0.2,0l0.1,0.2c0,0.1,0.1,0.1,0.1,0.2c0,0,0,0.1-0.1,0.1
		c-0.1,0-0.1,0-0.2,0c-0.1-0.1-0.5-0.3-0.7-0.1c0,0,0,0,0,0l0.1,0.1c0,0,0.1,0.1,0.1,0.2c0,0,0,0.1,0,0.1c-0.1,0.1-0.2,0.1-0.3,0
		c-0.2,0-0.3,0-0.4,0.1c-0.1,0.2-0.1,0.2,0,0.3c0,0.1,0.1,0.2,0.1,0.3l-0.1,0.1c-0.2,0.2-0.4,0.4-0.2,0.6c0.1,0,0.4-0.1,0.5-0.2
		l0.3-0.1c0.2,0,0.3,0.2,0.3,0.3c0,0.1,0,0.1,0.1,0.1c0.3-0.1,0.4-0.3,0.5-0.5C9,13,9.1,12.9,9.2,12.8c0.1-0.1,0.1-0.1,0.2,0
		c0.1,0,0.1,0.1,0.2,0.2l0,0c0.1-0.1,0.3-0.4,0.4-0.8c0,0,0,0,0,0c-0.2,0-0.4,0.1-0.5,0.1C9.1,12.4,8.2,12.9,8.2,12.8L8.2,12.8z"/>
	<path class="st0" d="M7.8,11.9c0,0,0-0.1,0-0.1c0,0,0,0,0,0c0-0.1,0.1-0.1,0.1-0.2c-0.1,0-0.2-0.1-0.2-0.2
		c-0.1-0.1-0.2-0.3-0.2-0.5c-0.1-0.1-0.2-0.1-0.3-0.2c0,0,0,0,0,0c-0.1-0.1-0.4-0.1-0.4,0c0,0,0,0.2,0,0.2c0,0.1,0,0.3-0.1,0.4
		c-0.1,0.1-0.3,0-0.4-0.1C6.1,11.1,5.9,11,5.8,11l0,0.2l0,0.3l-0.2,0.1c-0.1,0-0.2,0.1-0.2,0.1c0,0,0,0.1,0,0.1
		c0.1,0.2,0.2,0.2,0.4,0.2l0.3,0.1l0.1,0.2c0,0.1,0,0.2,0.1,0.2c0.2,0.2,0.5-0.1,0.7-0.2l0.2-0.1c0,0,0.1,0,0.1,0.1l0,0
		c0,0,0-0.1,0.1-0.1C7.4,12,7.6,11.9,7.8,11.9L7.8,11.9z M21.8,10.4l-0.1,0c-0.1,0-0.1-0.1-0.1-0.3c0-0.1,0.1-0.2,0-0.3
		C21.4,9.7,21,9.9,20.8,10c-0.1,0.1-0.2,0.1-0.3,0.1s-0.1-0.1-0.1-0.2c0-0.1,0-0.1-0.1-0.2c0,0,0,0,0,0l0,0c0,0.1-0.1,0.3-0.3,0.5
		c0.4,0,1,0.2,1,0.3c0,0.1-1,0-1.3,0l-0.2,0c-0.1,0-0.2,0-0.2,0.1c0,0.1,0.1,0.1,0.1,0.2l0.2,0c0.2,0,0.4-0.1,0.6,0s0.2,0.2,0.2,0.3
		c0,0.1,0,0.2-0.1,0.2c0.1,0,0.2,0.1,0.3,0.2c0,0,0-0.1,0-0.1l0.1-0.1c0.1-0.1,0.2,0,0.3,0c0.1,0,0.3,0.1,0.4,0.1
		c0.1,0,0.1-0.1,0.1-0.2c0-0.1,0-0.2,0.1-0.2l0.2,0c0.1,0,0.3,0.1,0.4,0c0,0,0.1-0.1,0.1-0.2C22.4,10.5,22.2,10.4,21.8,10.4
		L21.8,10.4z"/>
	<path class="st0" d="M6.4,10.9L6.4,10.9L6.4,10.9l0-0.2c0-0.1,0-0.3,0.1-0.3l-0.2,0c-0.2,0-1,0-1-0.1c0-0.1,0.9-0.2,1.2-0.1
		c0.1,0,0.3,0.1,0.4,0.1L6.8,10l0-0.1l0-0.1C6.6,9.5,6.3,9.3,6.2,9.3c-0.1,0-0.1,0-0.1,0.1c0,0.1,0,0.2-0.2,0.2
		c-0.1,0-0.2,0-0.3-0.1C5.6,9.4,5.4,9.2,5.2,9.3c-0.1,0-0.1,0,0,0.2c0,0.1,0,0.3-0.1,0.3l-0.3,0c-0.1,0-0.3-0.1-0.4,0
		c0,0,0,0-0.1,0.1c0,0.2,0.1,0.3,0.5,0.4L5,10.4c0.1,0.1,0,0.2-0.1,0.3c-0.1,0.1-0.1,0.2-0.1,0.2C5,11.1,5.2,11,5.4,10.9l0.2-0.1
		c0,0,0.1,0,0.1,0C6,10.7,6.2,10.8,6.4,10.9L6.4,10.9z M16.4,11.7c-0.3,0-0.5,0.1-0.6,0.1c0,0-0.1,0-0.2,0c0,0-0.1-0.1-0.1-0.1
		c0,0,0,0,0,0c0-0.1,0.1-0.2,0.1-0.4c-0.3,0.3-0.7,0.8-0.8,1c0,0.1-0.1,0.1-0.2,0c0,0-0.1-0.1-0.1-0.1c0,0,0,0,0-0.1
		c0-0.1,0.1-0.4,0.1-0.6c0-0.3,0-0.7,0.2-1.1c0.1-0.3,0.3-0.6,0.5-0.8L15,9.8c-0.3,0.1-0.4,0.2-0.4,0.1l-0.1-0.3l0-0.1L14.4,10
		c0,0.1-0.1,0.1-0.2,0.1c0,0-0.1,0-0.1,0c0.1,0.3,0.2,0.7,0.2,1l0,0.2c0,0-0.2,1.2-0.4,1.3c-0.1,0-0.1,0-0.2-0.1l-0.2-0.3l-0.4-0.7
		c-0.3-0.6-0.3-1.1-0.3-1.4v0c-0.2,0.1-0.5,0.2-0.7,0.1c0,0,0,0,0,0c-0.1,0.2-0.2,0.3-0.3,0.4c0,0,0,0,0.1,0c0.3,0.1,1,0.3,1.3,1.6
		c0.1,0.4,0.1,0.8,0.1,1.1c0,0.3,0,0.5-0.1,0.6c0,0-0.1,0.1-0.2,0c-0.1,0-1.4-0.9-1.4-2.2c0-0.9-0.3-1.1-0.4-1.1l0,0.4
		c0,0.2-0.1,0.3-0.2,0.3s-0.2,0-0.3,0c0,0.1,0.1,0.2,0.1,0.2c0,0,0,0,0,0.1c0,0.1-0.1,0.1-0.2,0.2c-0.1,0-0.3,0.1-0.4,0.1
		c0.7,0.3,1.3,1.2,1.4,1.4c0,0.1,0.3,0.5,0.5,0.9c0.5,0.8,0.5,0.8,0.5,0.9c-0.1,0.9-0.5,1.6-1.2,1.9l-0.2,0.1l-1.4,0.8l0,0
		c0.1-0.1,0.2-0.1,0.5-0.1c0.2,0,0.4,0.1,0.5,0.1c0,0,0,0,0-0.1c0.3-0.6,1-0.5,1.3-0.5c0-0.1,0-0.2,0.1-0.3l0.2-0.3
		c0.2-0.3,0.4-1,0.5-1s0.1,0.5-0.3,1.1l-0.2,0.3c-0.1,0.1-0.1,0.2-0.1,0.3c0,0,0,0,0,0c0,0.1,0,0.2,0,0.2c0.2,0,0.3,0.1,0.5,0.1
		c0,0,0,0,0,0c0,0,0,0,0,0c0.2-0.4,0.4-0.7,0.8-0.7c0.2,0,0.3,0.1,0.4,0.2c0.1,0.1,0.2,0.3,0.2,0.4c0.2,0,0.5,0,0.7,0.1
		c0.1-0.1,0.3-0.1,0.6-0.1c0.2,0,0.3,0,0.4,0.1l0,0c-0.1-0.3-0.3-0.4-0.6-0.5c-0.4-0.2-0.8-0.4-1.1-1.1c-0.1-0.3-0.2-0.8-0.2-1.2
		c0-0.3,0-1.2,0.1-1.2s0.2,0.9,0.2,1.2c0,0.4,0.1,0.8,0.2,1.1c0.2,0.6,0.6,0.8,1,0.9c0.3,0.1,0.6,0.2,0.7,0.6c0,0,0,0.1,0.1,0.2
		c0.1,0,0.2,0,0.3,0c0.2,0,0.4,0.1,0.5,0.2c0.1-0.1,0.3-0.1,0.4-0.1c-0.1-0.2-0.4-0.3-1.1-0.5l-0.1,0c-1-0.4-1.3-0.9-1.4-1.2l0,0
		c-0.2-0.3-0.6-2.1,0.2-3.2C15.5,12.1,16.1,11.9,16.4,11.7L16.4,11.7L16.4,11.7z M20.2,11.6c-0.1,0-0.2-0.1-0.2-0.1l0-0.2
		c0-0.1,0.1-0.1-0.1-0.2c0,0-0.2,0-0.3,0l-0.3,0c-0.1,0-0.1-0.1-0.2-0.1c0,0,0,0-0.1,0c-0.3,0.1-0.8,0.1-1.2-0.1
		C17.7,11,17.5,11,17.3,11l0,0l0.1,0.2c0.4-0.1,0.7-0.1,0.8,0c0.1,0.1,0.1,0.1,0.1,0.2c0,0,0,0.1,0,0.1l0.2,0c0.3,0,0.6,0.1,0.7,0.2
		c0,0.1,0.1,0.1,0.1,0.2c0,0.1,0,0.2-0.1,0.2l0.1,0l0.2,0.1l0.1,0c0.1,0,0.2,0,0.3,0c0,0,0,0,0-0.1l0.1-0.2l0.3,0c0.2,0,0.2,0,0.2,0
		C20.5,11.7,20.4,11.7,20.2,11.6L20.2,11.6z"/>
	<path class="st0" d="M19.4,13.1l-0.1-0.2c0,0,0,0,0,0c0-0.1,0.1-0.2,0.1-0.2c0,0,0,0,0,0c0,0-0.2-0.1-0.3-0.1
		c-0.2,0-0.3-0.1-0.3-0.2c0,0,0,0,0-0.1c0-0.1,0-0.1,0.1-0.2c0-0.1,0-0.1,0-0.1c-0.1,0-0.3-0.1-0.5-0.1c-0.3,0-0.4,0-0.5-0.2l0-0.1
		c0,0,0-0.1,0-0.1c-0.1,0-0.4-0.1-1,0.1c0.2,0.1,0.4,0.2,0.6,0.3c0.2,0.1,0.4,0.5,0.4,0.5c-0.1,0.1-0.4-0.2-0.5-0.3
		c-0.2-0.1-0.5-0.3-0.7-0.4c0,0.3,0.1,0.7,0.2,0.8c0,0,0.1-0.1,0.2-0.1c0.1,0,0.1,0.1,0.2,0.3c0.1,0.2,0.2,0.5,0.3,0.5
		c0.1,0,0.1,0,0.2-0.1c0,0,0.1-0.2,0.2-0.1l0.2,0.1c0.1,0.1,0.2,0.2,0.3,0.2c0.1,0,0.1-0.1,0.2-0.1c0,0,0.1-0.1,0.2-0.1l0.1,0
		c0.2,0.1,0.3,0.1,0.4,0c0,0,0,0,0-0.1C19.5,13.2,19.5,13.1,19.4,13.1L19.4,13.1z M14.9,2c0.1,0,0.2,0,0.3,0.1
		c0.1,0.2,0.1,0.3,0.1,0.5c0,0.3-0.2,0.5-0.3,0.7c0.1,0,0.2,0.1,0.3,0.2c0,0,0,0.1,0,0.1c0,0.1-0.1,0.3-0.1,0.5c0.1-0.1,0.2,0,0.3,0
		l0,0c0.1-0.2,0.2-0.6,0.5-0.7h0.2c0,0,0-0.1,0-0.1c0,0,0,0-0.1,0c-0.1,0-0.1,0-0.1-0.1s0-0.1,0.1-0.2c0.2-0.1,0.5-0.4,0.4-0.5
		c-0.1-0.1-0.2-0.2-0.3-0.2L16.2,2c-0.1-0.1-0.1-0.1,0-0.3c0-0.3,0-0.4-0.1-0.5c-0.2,0-0.3,0.1-0.5,0.3c-0.1,0.1-0.2,0.2-0.3,0.2
		l-0.2-0.1c0,0-0.1-0.1-0.1-0.1c0,0.1,0,0.1,0,0.2C15,1.9,14.9,1.9,14.9,2L14.9,2z"/>
	<path class="st0" d="M13.5,3.4c0.2,0.2,0.3,0.4,0.3,0.5c0,0.2-0.1,0.5-0.2,0.6l0.1,0l0.1,0l0.2-0.9c0.1-0.4,0.1-0.7,0.2-0.7
		c0.1,0,0.1,0.3,0.1,0.7c0,0.4-0.1,0.8-0.2,1c0.2-0.2,0.4-0.3,0.5-0.3c0.1,0,0.1-0.1,0.2-0.1c0.2-0.3,0.3-0.6,0.3-0.7
		c0,0-0.1,0-0.2,0c-0.1,0-0.2,0-0.2-0.1s0-0.2,0.1-0.2c0.2-0.3,0.4-0.6,0.2-0.9c0,0-0.1,0-0.1,0.1c-0.1,0-0.1,0.1-0.2,0
		c0,0-0.1-0.1,0-0.2c0-0.1,0.1-0.4,0-0.6c0-0.1-0.1-0.1-0.2-0.1c-0.1,0-0.2,0.3-0.3,0.5S14,2.1,13.9,2.1l-0.3,0c-0.1,0-0.1,0-0.2,0
		c-0.1,0.1,0,0.4,0.1,0.6c0.1,0.2,0.2,0.3,0.1,0.4c0,0-0.1,0.1-0.1,0.1c-0.1,0-0.2,0-0.3,0.1c0,0,0,0,0,0.1
		C13.3,3.4,13.5,3.3,13.5,3.4L13.5,3.4z M16.4,3.6c0,0,0-0.1-0.1-0.1l-0.1,0C16.1,3.6,16,3.9,15.9,4c0,0.1-0.1,0.2-0.2,0.2l-0.1,0
		c-0.1,0-0.2,0-0.2,0.1c0.1,0.1,0.1,0.2,0.1,0.2l0,0c0.1,0.2,0.1,0.4,0.2,0.5c0.1-0.1,0.2-0.2,0.3-0.3c0.3-0.3,0.6-0.5,0.6-0.4
		c0,0.1-0.2,0.3-0.4,0.5l-0.2,0.2c0.1,0,0.2,0,0.3,0c0.2,0.1,0.2,0.3,0.2,0.5l0,0.1l0,0c0,0,0.1,0,0.1,0c0.1,0,0.2-0.1,0.3-0.3
		c0-0.1,0-0.1,0-0.2c0,0-0.1-0.1-0.1-0.2c0-0.1,0.1-0.1,0.1-0.1c0.1,0,0.2-0.1,0.3-0.2c0,0,0,0,0,0c0.2-0.1,0.3-0.2,0.3-0.3
		c0-0.1,0-0.1-0.1-0.2c-0.1,0-0.1-0.1-0.1-0.2L17.4,4c0.1-0.1,0.3-0.2,0.3-0.3c0-0.1,0-0.1-0.1-0.2c-0.1-0.1-0.2-0.1-0.2-0.1
		c-0.2,0-0.3,0.2-0.5,0.3l-0.3,0.2C16.5,3.8,16.4,3.7,16.4,3.6L16.4,3.6z"/>
	<path class="st0" d="M17.7,5.3l0.1-0.1C18,5.2,18.2,5,18.5,5.1C18.6,5,18.7,5,18.8,4.9c0.3-0.1,0.6-0.2,0.6-0.2S19.2,5,18.9,5.1
		l-0.2,0.1c0.1,0.1,0.2,0.2,0.2,0.3c0.1,0,0.2,0.1,0.3,0.2l0,0l0.1-0.1c0.2-0.2,0.4-0.5,0.8-0.4c0-0.1,0-0.2-0.1-0.3
		c0,0,0-0.1,0-0.1c0,0,0-0.1,0.1-0.1c0.1-0.1,0.3-0.2,0.3-0.3c0,0,0-0.1,0-0.1c-0.1-0.2-0.3-0.1-0.5,0l-0.2,0l-0.1-0.1
		c0-0.1-0.1-0.1-0.2-0.2c-0.1,0-0.3,0.2-0.4,0.3l-0.3,0.2l-0.2-0.1c0,0-0.1-0.1-0.1-0.1c-0.1,0-0.3,0.2-0.3,0.3l-0.1,0.1l-0.1,0
		c0,0.1-0.1,0.3-0.3,0.4C17.6,5.1,17.7,5.2,17.7,5.3L17.7,5.3z M6.7,8.7c0.1,0.2,0,0.4-0.1,0.5c0.1,0.1,0.1,0.1,0.2,0.2
		c0.1-0.2,0.4-0.2,0.5-0.2L7.4,9c0,0,0,0,0,0c0,0,0-0.1,0-0.1l0,0C7.3,8.8,7,8.6,7,8.3c0,0,0-0.1,0-0.1c0-0.2,0.2-0.3,0.3-0.4
		c0-0.1-0.1-0.2-0.1-0.3c0,0,0-0.1,0-0.1c0,0-0.2,0-0.2,0c-0.2,0.1-0.3,0.1-0.4,0L6.6,7.4L6.3,7.1C6.2,7,6,6.9,5.9,6.9
		C5.8,7,5.8,7,5.8,7.2c0,0.1,0,0.2-0.1,0.2l-0.2,0C5.3,7.4,5.2,7.4,5.1,7.5c-0.1,0.1-0.1,0.2,0,0.3C5.2,8,5.6,8.1,5.7,8.1
		c0.1,0,0.1,0.1,0.1,0.1s0,0.1-0.1,0.1c0,0-0.1,0.1-0.1,0.2l0,0.1c0,0.1,0.1,0,0.3-0.1C6.2,8.5,6.5,8.4,6.7,8.7L6.7,8.7z M12.3,3.3
		c-0.1,0-0.1,0.3-0.1,0.5c0,0.2,0,0.3,0,0.3c-0.1,0.1-0.2,0.1-0.2,0c-0.1,0-0.1,0-0.1,0.1s0.1,0.2,0.3,0.5c0.1,0.1,0.1,0.2,0.1,0.2
		c0,0,0,0.1-0.1,0.1c0.1,0.1,0.1,0.2,0.1,0.2c0.1,0,0.1,0,0.2,0.1c0.1,0.1,0.1,0.1,0.1,0.2c0.1-0.1,0.1-0.1,0.2-0.1
		c0-0.1-0.1-0.2-0.1-0.4c0-0.3-0.1-0.7,0-0.8c0.1,0,0.2,0.4,0.3,0.7l0.1,0.4c0.1,0,0.3,0.1,0.4,0.2c0-0.1,0-0.3,0.1-0.4
		c0.1-0.1,0.2-0.1,0.3-0.2c0-0.1,0.1-0.2,0.1-0.3l-0.2,0c-0.2,0-0.4,0-0.4-0.2l0.1-0.2c0.2-0.4,0.2-0.6,0-0.8l-0.1,0.1
		c-0.1,0.1-0.1,0.1-0.2,0.1l-0.2-0.2C12.8,3.5,12.5,3.2,12.3,3.3L12.3,3.3z"/>
	<path class="st0" d="M10.4,4.4l-0.2,0.3c-0.1,0.1-0.1,0.1-0.1,0.1c0,0,0.1,0.1,0.4,0.1c0-0.1,0-0.4,0.2-0.5c0.1-0.1,0.3,0,0.4,0
		c0-0.1-0.1-0.2-0.2-0.3c-0.1-0.1-0.4-0.5-0.3-0.6s0.4,0.3,0.5,0.5c0.1,0.2,0.2,0.4,0.2,0.5c0.1,0,0.2,0,0.3,0.1
		c-0.1-0.1-0.2-0.3-0.2-0.5c0,0,0-0.1,0-0.1C11.6,4,11.8,3.9,12,3.9l0-0.1l0-0.3c0-0.1,0-0.1,0-0.2c-0.1-0.1-0.2,0-0.3,0
		c0,0-0.1,0.1-0.2,0c-0.1,0-0.1-0.1-0.1-0.3c0-0.2,0-0.7-0.3-0.7c-0.1,0-0.1,0.1-0.2,0.2c-0.1,0.1-0.1,0.2-0.2,0.2
		c-0.1,0-0.2-0.1-0.2-0.2C10.2,2.4,10,2.3,9.8,2.5C9.6,2.6,9.7,2.9,9.9,3.2l0.1,0.2c0,0.1-0.1,0.1-0.2,0.1c-0.1,0-0.2,0.1-0.2,0.2
		c0,0.2,0.2,0.3,0.6,0.4C10.3,4.2,10.5,4.3,10.4,4.4L10.4,4.4z M6.7,7.1L6.5,6.9c0.1-0.1,0.2-0.2,0.3-0.2c0.1,0,0.1,0,0.2-0.1
		c0-0.1-0.1-0.2-0.2-0.2C6.2,6.1,6.1,6,6.1,5.9c0,0,0.1-0.1,0.2-0.1l0.2-0.1c0.1-0.1,0-0.2,0-0.3C6.4,5,6.4,4.9,6.6,4.8
		c0.1,0,0.1,0,0.3,0.2l0.2,0.2c0.2,0,0.2-0.1,0.3-0.2c0,0,0.1-0.2,0.1-0.2c0.1,0,0.2,0.4,0.2,0.5c0,0.2,0,0.3,0.2,0.3
		c0.1,0,0.2-0.1,0.3-0.1c0-0.1,0.1-0.1,0.1-0.1c0.1,0,0.1,0.3,0.1,0.5c0,0.2,0,0.3,0.1,0.4c0.1,0,0.2,0.1,0.4,0
		C9,6.3,9.3,6.3,9.4,6.3l0.1,0c0,0.1,0,0.1,0,0.2C9,6.4,8.6,6.5,8.4,6.5l-0.1,0l-0.1,0L7.9,6.6c0,0,0,0,0,0C7.7,6.5,7.6,6.4,7.4,6.2
		C7.2,5.9,7.1,5.6,7,5.6c-0.2,0.1,0,0.5,0.2,0.7C7.4,6.6,7.7,6.9,7.9,7l0,0c0,0.1,0,0.3,0,0.4C7.8,7.5,7.7,7.6,7.7,7.7l0,0l-0.1,0
		c-0.1,0-0.1-0.2-0.1-0.3c0-0.1-0.1-0.3-0.1-0.3c-0.1-0.1-0.3,0-0.4,0l-0.2,0L6.7,7.1L6.7,7.1z"/>
	<path class="st0" d="M9.1,5.4L9.1,5.7L9,5.8C9,6,9.1,6,9.4,6.1c0.2,0,0.3,0,0.4,0.2c0,0.1,0,0.2,0,0.2c0,0,0,0,0.1,0
		c0.2,0.1,0.4,0.2,0.5,0.5c0,0,0.1,0,0.1-0.1l0.3,0C11,7,11.1,7.3,11.2,7.4c0.1-0.1,0.4-0.1,0.6,0.2c0.1,0,0.2,0,0.3,0
		c0-0.1,0.1-0.1,0.1-0.2c-0.1-0.1-0.2-0.3-0.2-0.4c-0.3,0.1-0.6,0.1-1,0c-0.3-0.1-0.5-0.3-0.5-0.5c0-0.1,0-0.2,0.1-0.3l0,0
		c-0.3-0.5-0.2-0.8-0.1-1c-0.3,0-0.6-0.1-0.6-0.4c0,0,0,0-0.1,0L9.6,4.8C9.3,4.6,9.1,4.5,8.8,4.7C8.7,4.8,8.8,4.9,9,5.2L9.1,5.4
		L9.1,5.4z M11.2,2.2c0.4,0.1,0.5,0.6,0.5,0.9c0.1,0,0.2,0,0.4,0c0-0.1,0.1-0.1,0.2-0.1c0.1,0,0.3,0,0.4,0c0-0.3,0.1-0.8,0-0.8
		c0,0-0.1,0-0.1,0.1s-0.1,0.1-0.2,0s-0.1-0.1-0.1-0.1c0-0.3,0-0.7-0.1-0.7c-0.1,0-0.1,0-0.2,0c-0.1,0.1-0.2,0.1-0.2,0.1l-0.1-0.1
		C11.5,1.3,11.2,1,11,1.1c-0.2,0.1,0,0.4,0.1,0.6c0.1,0.2,0.1,0.2,0,0.3S11,2.1,10.9,2.1c-0.1,0-0.2,0-0.2,0.1c0,0.1,0,0.2,0.1,0.2
		C10.9,2.3,11,2.2,11.2,2.2L11.2,2.2z M14,4.8L14,4.8C14,4.8,14,4.8,14,4.8L14,4.8z M18.3,9L18.3,9L18.3,9C18.3,9,18.4,9,18.3,9
		L18.3,9z"/>
	<path class="st1" d="M15.8,47.8c0,0.1-0.3,0.2-0.5,0.2c-0.3,0-0.6,0-0.6-0.2s0.3-0.1,0.6-0.1C15.5,47.7,15.8,47.7,15.8,47.8
		L15.8,47.8L15.8,47.8z"/>
	<path class="st0" d="M7.7,36.6l-0.1,0c0,0-0.1,0-0.1,0c0,0-0.4-0.4-0.8-0.4c-0.3,0-0.6,0.1-0.9,0.2c-0.3,0.1-0.5,0.2-0.7,0.2H4.3
		c-0.1,0-0.1-0.1-0.1-0.1v-4l-0.3,0.2v4.1H7c0,0,0.1,0,0.1,0c0,0,0.2,0.2,0.5,0.3l0.1,0c0.3,0,0.5-0.3,0.5-0.3c0,0,0.1,0,0.1,0h3.2
		v-4.1l-0.3-0.2v4c0,0.1-0.1,0.1-0.1,0.1h-0.7c-0.2,0-0.5-0.1-0.7-0.2c-0.3-0.1-0.6-0.2-0.9-0.2c-0.5,0-0.8,0.4-0.8,0.4
		c0,0-0.1,0.1-0.1,0L7.7,36.6L7.7,36.6z M11.9,36.9c0,0.1-0.1,0.1-0.1,0.1H8.5c-0.2,0.2-0.4,0.3-0.6,0.3l-0.2,0
		c-0.3,0-0.5-0.1-0.7-0.3H3.7c-0.1,0-0.1-0.1-0.1-0.1v-4.2H3.3v4.6H7c0,0,0.1,0,0.1,0c0,0,0.2,0.2,0.5,0.2c0.1,0,0.3,0,0.4,0
		c0.2,0,0.3-0.1,0.5-0.2c0,0,0.1,0,0.1,0h3.7v-4.6h-0.3L11.9,36.9L11.9,36.9z"/>
	<path class="st0" d="M6.6,31.7c-0.5,0-0.8,0.2-1,0.4c-0.2,0.1-0.3,0.3-0.6,0.3H4.4v4H5c0.2,0,0.4-0.1,0.6-0.2
		c0.3-0.1,0.6-0.3,1-0.3c0.4,0,0.8,0.2,0.9,0.4l0-4C7.6,32.2,7.4,31.7,6.6,31.7L6.6,31.7z M7,35.1C7,35.1,7,35.1,7,35.1
		c-0.1,0-0.4,0-0.7,0.1l-0.4,0.2l-0.2,0.1c-0.3,0.1-0.6,0.2-0.6,0.2c0,0-0.1,0-0.1-0.1s0-0.1,0.1-0.1c0.1,0,0.3,0,0.6-0.2l0.2-0.1
		L6.4,35C6.6,35,6.8,35,7,35.1C7.1,35,7.1,35,7,35.1L7,35.1z M7,34.2C7,34.3,7,34.3,7,34.2c-0.1,0-0.4,0-0.7,0.1l-0.4,0.2l-0.2,0.1
		c-0.2,0.1-0.4,0.1-0.6,0.2c0,0-0.1,0-0.1-0.1s0-0.1,0.1-0.1c0.1,0,0.3,0,0.6-0.2l0.2-0.1l0.5-0.2C6.6,34.1,6.8,34.1,7,34.2
		C7.1,34.2,7.1,34.2,7,34.2L7,34.2z M7,33.4C7,33.4,7,33.4,7,33.4c-0.1,0-0.4,0-0.7,0.1l-0.4,0.2l-0.2,0.1c-0.2,0.1-0.4,0.1-0.6,0.2
		c0,0-0.1,0-0.1-0.1s0-0.1,0.1-0.1c0.1,0,0.3,0,0.6-0.2l0.2-0.1l0.5-0.2C6.6,33.3,6.8,33.3,7,33.4C7.1,33.3,7.1,33.4,7,33.4L7,33.4z
		 M7,32.5C7,32.6,7,32.6,7,32.5c-0.1,0-0.4,0-0.7,0.1l-0.4,0.2l-0.2,0.1c-0.3,0.1-0.6,0.2-0.6,0.2C5,33.1,5,33,5,33s0-0.1,0.1-0.1
		c0.1,0,0.3,0,0.6-0.2l0.2-0.1l0.5-0.2C6.6,32.4,6.8,32.4,7,32.5C7.1,32.5,7.1,32.5,7,32.5L7,32.5z"/>
	<path class="st0" d="M7.9,36.6l-0.1,0l-0.1,0c0,0-0.1,0-0.1,0c0,0-0.4-0.4-0.8-0.4c-0.3,0-0.6,0.1-0.9,0.2
		c-0.3,0.1-0.5,0.2-0.7,0.2H4.3c-0.1,0-0.1-0.1-0.1-0.1v-4l-0.3,0.2v4.1H7c0,0,0.1,0,0.1,0c0,0,0.2,0.2,0.5,0.3l0.1,0
		c0.3,0,0.5-0.3,0.5-0.3c0,0,0.1,0,0.1,0h3.2v-4.1l-0.3-0.2v4c0,0.1-0.1,0.1-0.1,0.1h-0.7c-0.2,0-0.5-0.1-0.7-0.2
		c-0.3-0.1-0.6-0.2-0.9-0.2c-0.5,0-0.8,0.4-0.8,0.4C8,36.6,7.9,36.6,7.9,36.6L7.9,36.6z M12.2,32.7h-0.3v4.2c0,0.1-0.1,0.1-0.1,0.1
		H8.5c-0.2,0.2-0.4,0.3-0.6,0.3l-0.2,0c-0.3,0-0.5-0.1-0.7-0.3H3.7c-0.1,0-0.1-0.1-0.1-0.1v-4.2H3.3v4.6H7c0,0,0.1,0,0.1,0
		c0,0,0.2,0.2,0.5,0.2c0.1,0,0.3,0,0.4,0c0.2,0,0.3-0.1,0.5-0.2c0,0,0.1,0,0.1,0h3.7L12.2,32.7L12.2,32.7z"/>
	<path class="st0" d="M10.5,32.3c-0.2,0-0.4-0.1-0.6-0.3c-0.2-0.2-0.5-0.4-1-0.4c-0.9,0-1,0.5-1,0.5v4.1c0.2-0.2,0.5-0.4,0.9-0.4
		c0.4,0,0.7,0.1,1,0.3c0.2,0.1,0.4,0.2,0.6,0.2H11v-4L10.5,32.3L10.5,32.3z M10.4,35.6c-0.1,0-0.3,0-0.6-0.2l-0.2-0.1l-0.4-0.2
		c-0.2,0-0.4-0.1-0.6,0c0,0-0.1,0-0.1,0s0-0.1,0-0.1c0.2,0,0.5,0,0.7,0l0.5,0.2l0.2,0.1c0.3,0.1,0.5,0.2,0.6,0.2
		C10.5,35.5,10.5,35.5,10.4,35.6C10.5,35.6,10.4,35.6,10.4,35.6L10.4,35.6z M10.4,34.8c-0.1,0-0.3,0-0.6-0.2l-0.2-0.1l-0.4-0.2
		c-0.2,0-0.4-0.1-0.6,0c0,0-0.1,0-0.1,0s0-0.1,0-0.1c0.2,0,0.5,0,0.7,0l0.5,0.2l0.2,0.1c0.3,0.1,0.5,0.2,0.6,0.2
		C10.5,34.6,10.5,34.7,10.4,34.8C10.5,34.7,10.4,34.8,10.4,34.8L10.4,34.8z M10.4,33.9c-0.1,0-0.3,0-0.6-0.2l-0.2-0.1l-0.4-0.2
		c-0.3-0.1-0.5,0-0.6,0c0,0-0.1,0-0.1,0s0-0.1,0-0.1c0.2,0,0.5,0,0.7,0l0.5,0.2l0.2,0.1c0.3,0.1,0.5,0.2,0.6,0.2
		C10.5,33.8,10.5,33.8,10.4,33.9C10.5,33.9,10.5,33.9,10.4,33.9L10.4,33.9z M10.4,33.1c-0.2,0-0.4-0.1-0.6-0.2l-0.2-0.1l-0.4-0.2
		c-0.2,0-0.4-0.1-0.6,0c0,0-0.1,0-0.1-0.1s0,0,0-0.1c0.2,0,0.5,0,0.7,0l0.5,0.2l0.2,0.1c0.3,0.1,0.5,0.2,0.6,0.2
		C10.5,32.9,10.5,33,10.4,33.1C10.5,33,10.4,33.1,10.4,33.1L10.4,33.1z M19.2,36.6l0.1,0c0,0,0.1,0,0.1,0c0,0,0.3-0.4,0.8-0.4
		c0.3,0,0.6,0.1,0.9,0.2c0.3,0.1,0.5,0.2,0.7,0.2h0.7c0.1,0,0.1-0.1,0.1-0.1v-4l0.3,0.2v4.1h-3.2c0,0-0.1,0-0.1,0
		c0,0-0.2,0.2-0.5,0.3l-0.1,0c-0.3,0-0.5-0.3-0.5-0.3c0,0-0.1,0-0.1,0h-3.2v-4.1l0.3-0.2v4c0,0.1,0.1,0.1,0.1,0.1h0.7
		c0.2,0,0.5-0.1,0.7-0.2c0.3-0.1,0.6-0.2,0.9-0.2c0.5,0,0.8,0.4,0.8,0.4c0,0,0.1,0,0.1,0L19.2,36.6L19.2,36.6z"/>
	<path class="st0" d="M23.4,36.9c0,0.1-0.1,0.1-0.1,0.1H20c-0.2,0.2-0.4,0.3-0.7,0.3l-0.2,0c-0.3,0-0.5-0.1-0.7-0.3h-3.3
		C15.1,37,15,37,15,36.9v-4.2h-0.3v4.6h3.7c0,0,0.1,0,0.1,0c0,0,0.2,0.2,0.5,0.2c0.1,0,0.3,0,0.4,0c0.2,0,0.3-0.1,0.5-0.2
		c0,0,0.1,0,0.1,0h3.7v-4.6h-0.3L23.4,36.9L23.4,36.9z M19.4,36.6l-0.1,0l-0.1,0c0,0-0.1,0-0.1,0c0,0-0.4-0.4-0.8-0.4
		c-0.3,0-0.6,0.1-0.9,0.2c-0.3,0.1-0.5,0.2-0.7,0.2h-0.7c-0.1,0-0.1-0.1-0.1-0.1v-4l-0.3,0.2v4.1h3.2c0,0,0.1,0,0.1,0
		c0,0,0.2,0.2,0.5,0.3l0.1,0c0.3,0,0.5-0.3,0.5-0.3c0,0,0.1,0,0.1,0h3.2v-4.1l-0.3-0.2v4c0,0.1-0.1,0.1-0.1,0.1H22
		c-0.2,0-0.5-0.1-0.7-0.2c-0.3-0.1-0.6-0.2-0.9-0.2c-0.5,0-0.8,0.4-0.8,0.4C19.5,36.6,19.4,36.6,19.4,36.6L19.4,36.6z"/>
	<path class="st0" d="M23.7,32.7h-0.3v4.2c0,0.1-0.1,0.1-0.1,0.1H20c-0.2,0.2-0.4,0.3-0.7,0.3l-0.2,0c-0.3,0-0.5-0.1-0.7-0.3h-3.3
		C15.1,37,15,37,15,36.9v-4.2h-0.3v4.6h3.7c0,0,0.1,0,0.1,0c0,0,0.2,0.2,0.5,0.2c0.1,0,0.3,0,0.4,0c0.2,0,0.3-0.1,0.5-0.2
		c0,0,0.1,0,0.1,0h3.7L23.7,32.7L23.7,32.7z M18.1,31.7c-0.5,0-0.8,0.2-1,0.4c-0.2,0.1-0.3,0.3-0.6,0.3h-0.6v4h0.6
		c0.2,0,0.4-0.1,0.6-0.2c0.3-0.1,0.6-0.3,1-0.3c0.4,0,0.8,0.2,0.9,0.4l0-4C19.1,32.2,18.9,31.7,18.1,31.7L18.1,31.7z M16.5,32.9
		c0.1,0,0.3,0,0.6-0.2l0.2-0.1l0.5-0.2c0.3-0.1,0.7,0,0.7,0c0,0,0.1,0,0,0.1s0,0-0.1,0c-0.1,0-0.4,0-0.6,0l-0.4,0.2l-0.2,0.1
		c-0.3,0.1-0.6,0.2-0.6,0.2C16.5,33.1,16.5,33,16.5,32.9C16.5,33,16.5,32.9,16.5,32.9L16.5,32.9z M16.5,33.8c0.1,0,0.3,0,0.6-0.2
		l0.2-0.1l0.5-0.2c0.2-0.1,0.4-0.1,0.7,0c0,0,0.1,0,0,0.1s0,0.1-0.1,0c-0.2,0-0.4,0-0.6,0l-0.4,0.2l-0.2,0.1
		c-0.3,0.1-0.6,0.2-0.6,0.2C16.5,33.9,16.5,33.9,16.5,33.8C16.5,33.8,16.5,33.8,16.5,33.8L16.5,33.8z M18.5,35.1c-0.2,0-0.4,0-0.6,0
		l-0.4,0.2l-0.2,0.1c-0.3,0.1-0.6,0.2-0.6,0.2c0,0-0.1,0-0.1-0.1s0-0.1,0.1-0.1c0.2,0,0.4-0.1,0.6-0.2l0.2-0.1l0.5-0.2
		c0.2-0.1,0.4-0.1,0.7,0C18.5,35,18.5,35,18.5,35.1C18.5,35.1,18.5,35.1,18.5,35.1L18.5,35.1z M18.5,34.3c-0.2,0-0.4,0-0.6,0
		l-0.4,0.2l-0.2,0.1c-0.2,0.1-0.4,0.1-0.6,0.2c0,0-0.1,0-0.1-0.1s0-0.1,0.1-0.1c0.1,0,0.3,0,0.6-0.2l0.2-0.1l0.5-0.2
		c0.2-0.1,0.4-0.1,0.7,0C18.5,34.2,18.6,34.2,18.5,34.3C18.5,34.3,18.5,34.3,18.5,34.3L18.5,34.3z M20.3,35.9
		c-0.4,0-0.8,0.2-0.9,0.4v-4.1c0,0,0.2-0.5,1-0.5c0.5,0,0.8,0.2,1,0.4c0.2,0.1,0.3,0.3,0.6,0.3h0.6v4H22c-0.2,0-0.4-0.1-0.6-0.2
		C21,36,20.7,35.9,20.3,35.9L20.3,35.9z M19.9,33.3C19.9,33.3,19.9,33.4,19.9,33.3c0,0.1,0,0.1,0,0.1c0.1,0,0.4,0,0.6,0l0.4,0.2
		l0.2,0.1c0.3,0.1,0.6,0.2,0.6,0.2c0,0,0.1,0,0.1-0.1s0-0.1-0.1-0.1c-0.1,0-0.3,0-0.6-0.2l-0.2-0.1l-0.5-0.2
		C20.3,33.2,19.9,33.3,19.9,33.3L19.9,33.3z M19.9,32.4C19.9,32.4,19.9,32.5,19.9,32.4c0,0.1,0,0.1,0,0.1c0.2,0,0.4,0,0.6,0l0.4,0.2
		l0.2,0.1c0.3,0.1,0.6,0.2,0.6,0.2c0,0,0.1,0,0.1-0.1s0-0.1-0.1-0.1c-0.2,0-0.4-0.1-0.6-0.2l-0.2-0.1l-0.5-0.2
		C20.4,32.4,20.2,32.4,19.9,32.4L19.9,32.4z M19.9,34.2C19.9,34.2,19.9,34.2,19.9,34.2c0,0.1,0,0.1,0,0.1c0.2,0,0.4,0,0.6,0l0.4,0.2
		l0.2,0.1c0.3,0.1,0.6,0.2,0.6,0.2c0,0,0.1,0,0.1-0.1s0-0.1-0.1-0.1c-0.1,0-0.3,0-0.6-0.2l-0.2-0.1l-0.5-0.2
		C20.3,34.1,20,34.1,19.9,34.2L19.9,34.2z M19.9,35C19.9,35,19.9,35,19.9,35c0,0.1,0,0.1,0,0.1c0.1,0,0.4,0,0.6,0l0.4,0.2l0.2,0.1
		c0.3,0.1,0.6,0.2,0.6,0.2c0,0,0.1,0,0.1-0.1s0-0.1-0.1-0.1c-0.2,0-0.4-0.1-0.6-0.2l-0.2-0.1L20.6,35C20.3,35,20,35,19.9,35L19.9,35
		z M10.6,44.5c-0.1-0.1-0.1-0.1-0.2-0.2c-0.1,0.1-0.1,0.1-0.2,0.2l-0.2,0.1c-0.3,0-0.6,0.1-0.7,0.4c0,0.1-0.1,0.2-0.1,0.3
		c0,0.2,0,0.3,0.1,0.3c0,0,0.1,0,0.1-0.1c-0.1-0.3,0.1-0.6,0.1-0.6c0,0,0,0.2,0,0.3c0,0,0,0.1,0,0.1c0.1,0,0.1-0.1,0.1-0.1
		c0-0.2,0.2-0.4,0.4-0.4l0.2,0.1c0.2,0.1,0.5,0.2,0.7,0.1C10.8,44.8,10.7,44.6,10.6,44.5L10.6,44.5z M14.7,45.9
		C14.7,45.8,14.7,45.8,14.7,45.9c-0.3-0.1-1.1-0.2-1.2-0.2c0,0-0.1,0-0.4,0.1c-0.2,0.1-0.4,0.2-0.5,0.4c0,0,0.1,0.1,0.1,0.1
		c0.1-0.1,0.2-0.2,0.4-0.3c0.2-0.1,0.4-0.1,0.5,0c0.1,0-0.2,0.1-0.4,0.3c-0.1,0.1-0.2,0.2-0.2,0.2c0.1,0,0.2,0,0.3,0l0.3-0.1
		c0.1,0,1.6,0,2,0c0,0,0-0.1,0.1-0.1C15.5,46.1,15.1,46,14.7,45.9L14.7,45.9z"/>
	<path class="st1" d="M15.2,48.4c0,0.1-0.4,0.2-0.6,0.2c-0.3,0-0.7,0-0.7-0.2s0.3-0.1,0.7-0.1C14.8,48.3,15.2,48.3,15.2,48.4
		L15.2,48.4L15.2,48.4z M14.6,49.1c0-0.1-0.4-0.1-0.6-0.1c-0.3,0-0.6,0-0.6,0.1s0.3,0.2,0.6,0.2C14.2,49.2,14.6,49.2,14.6,49.1
		L14.6,49.1L14.6,49.1z M13.9,49.7c0-0.1-0.3-0.1-0.4-0.1c-0.2,0-0.5,0-0.5,0.1s0.2,0.1,0.5,0.1C13.6,49.9,13.9,49.8,13.9,49.7
		L13.9,49.7L13.9,49.7z M8.2,41.7L8.2,41.7C8,41.8,8,41.9,8,41.9s0.1,0.1,0.2,0.1l0.1,0c0.1,0,0.1-0.1,0.1-0.2S8.3,41.7,8.2,41.7
		L8.2,41.7z M12.6,40.5c0,0-0.1,0-0.1,0l-0.8,0.3c-0.1,0-0.1,0.1-0.1,0.2s0.1,0.1,0.2,0.1l0.7-0.4C12.6,40.6,12.6,40.6,12.6,40.5
		L12.6,40.5L12.6,40.5z M12.7,41.2c0,0-0.1-0.1-0.1-0.1L12,41.3c-0.1,0-0.1,0.1-0.1,0.2s0.1,0.2,0.2,0.1l0.6-0.2
		C12.7,41.3,12.7,41.3,12.7,41.2L12.7,41.2L12.7,41.2z M12.7,42c0,0-0.1-0.1-0.1-0.1l-0.5,0C12.1,41.9,12,42,12,42s0.1,0.1,0.1,0.1
		l0.5-0.1C12.7,42.1,12.7,42,12.7,42L12.7,42L12.7,42z M12.6,42.7C12.6,42.6,12.6,42.6,12.6,42.7l-0.4-0.2c-0.1,0-0.1,0.1-0.1,0.1
		s0,0.1,0.1,0.1L12.6,42.7C12.6,42.8,12.6,42.7,12.6,42.7L12.6,42.7L12.6,42.7z M15.6,40.2c0,0.1,0,0.2,0.1,0.2c0,0,0.4,0.1,0.7,0.3
		c0.1,0,0.1,0,0.2,0s0-0.1,0-0.2c-0.2-0.1-0.5-0.2-0.8-0.3C15.7,40.1,15.6,40.1,15.6,40.2L15.6,40.2L15.6,40.2z M15.8,40.9
		c0,0.1,0,0.1,0.1,0.2c0.2,0.1,0.4,0.1,0.6,0.2c0.1,0,0.1,0,0.1,0s0-0.1,0-0.1c-0.3-0.2-0.6-0.2-0.6-0.2
		C15.9,40.8,15.8,40.8,15.8,40.9L15.8,40.9L15.8,40.9z M15.9,41.5c0,0.1,0,0.1,0.1,0.1l0.4,0.1c0,0,0.1,0,0.1,0s0-0.1,0-0.1
		c-0.3-0.2-0.4-0.2-0.4-0.2C15.9,41.4,15.9,41.4,15.9,41.5L15.9,41.5L15.9,41.5z M15.8,42c0,0,0,0.1,0.1,0.1c0,0,0.2,0,0.3,0.1
		c0,0,0.1,0,0.1,0s0-0.1,0-0.1C16.2,42,16.1,42,16,42C15.9,41.9,15.9,42,15.8,42L15.8,42L15.8,42z M17.2,41.2c0,0.1,0,0.2,0,0.2
		c0,0,0.2,0.1,0.4,0.3c0,0,0.1,0,0.2,0s0-0.1,0-0.2c-0.3-0.3-0.4-0.4-0.5-0.4C17.3,41.2,17.2,41.2,17.2,41.2L17.2,41.2L17.2,41.2z
		 M17.1,41.9c0,0.1,0,0.1,0.1,0.2c0,0,0.1,0,0.3,0.2c0,0,0.1,0,0.1,0s0-0.1,0-0.1c-0.3-0.2-0.3-0.3-0.3-0.3
		C17.2,41.8,17.1,41.8,17.1,41.9L17.1,41.9L17.1,41.9z M16.9,42.4c0,0,0,0.1,0,0.1c0,0,0.1,0.1,0.2,0.1c0,0,0.1,0,0.1,0s0-0.1,0-0.1
		s-0.2-0.2-0.2-0.2S17,42.4,16.9,42.4L16.9,42.4L16.9,42.4z M16.7,42.9c0,0,0,0.1,0,0.1c0,0,0,0,0.1,0.1c0,0,0.1,0,0.1,0
		s0-0.1,0-0.1c-0.1-0.1-0.1-0.1-0.1-0.1S16.8,42.8,16.7,42.9L16.7,42.9L16.7,42.9z M18.1,42.7c0,0,0,0.1,0,0.1c0,0,0.1,0,0.1,0.1
		c0,0,0.1,0.1,0.1,0s0.1-0.1,0-0.1s-0.1-0.2-0.1-0.2S18.1,42.6,18.1,42.7L18.1,42.7L18.1,42.7z M17.8,43c0,0,0,0.1,0,0.1l0.1,0.1
		c0,0,0.1,0.1,0.1,0s0-0.1,0-0.1s0-0.1-0.1-0.1S17.8,43,17.8,43L17.8,43L17.8,43z M8.4,43c0.1-0.1-0.2-0.3-0.1-0.5
		C8.4,42.3,9,42.1,9,42S8.2,42.1,8,42.4C7.9,42.7,8.3,43,8.4,43C8.4,43,8.4,43,8.4,43z M9.3,41.4c0.1,0,0.2-0.1,0.2-0.1
		c0,0,0.1,0,0.1,0s0.1,0.1,0.1,0.1c0,0,0,0.1,0.1,0.1s0.3-0.3,0-0.5c-0.1,0-0.2-0.1-0.3,0C9.2,41.1,9.2,41.4,9.3,41.4L9.3,41.4
		L9.3,41.4z M18,41.2c-2.1-2.6-5.1-1.3-5.3-1.3c-0.6,0.1-1.1,0.4-1.4,0.6L11,40.6l-1.1,0.1c-0.3,0.1-0.8,0.3-1.3,0.6l-0.4,0.2
		c-0.7,0.4-0.8,0.7-0.8,0.7c0,0,0,0.1-0.1,0.1c-0.1,0-0.2,0.1-0.2,0.2c0,0,0,0,0,0s0,0,0,0l0.1-0.1c0.1,0,0.2,0,0.2,0.1
		s0,0.2-0.1,0.2l-0.1,0.1C7.3,43,7.5,43,7.5,43s0.1,0,0.1,0c0.1,0,0.5-0.2,0.7,0.3l0,0.2c0,0.1-0.1,0.2-0.2,0.2c0.1,0,0.3,0,0.4,0
		l0.1,0l0.2,0c0.4-0.1,0.8-0.1,1.1-0.1c0.4,0.1,0.9,0.4,1,0.6c0.1,0.2,0.3,0.8,0.3,1c0,0.1-0.1,0.4-0.4,0.5
		c-0.2,0.1-0.4,0.1-0.6,0.1l-0.2,0c0,0-0.1,0.2-0.2,0.3h0.2c0.1-0.1,0.2-0.2,0.3-0.2c0,0,0,0.1,0,0.2l0.3,0l0.1,0
		c0.2,0,0.5,0,0.6-0.1l0.1-0.1l0.5-0.4l0.5-0.4l0.2-0.2c0.1-0.1,0.1-0.7,0-1.4c0-0.1,0-0.2,0.1-0.2s0.2,0,0.2,0.1
		c0,0.3,0.1,0.8,0,1.2c0,0,0,0,0,0c0.4,0.2,0.8,0.4,1.2,0.5c-0.1-0.2-0.2-0.4-0.3-0.6c-0.1-0.2-0.1-0.3-0.1-0.5
		c0-0.5,0.3-0.9,0.6-1.2c0.2-0.3,0.4-0.5,0.4-0.7c0,0,0,0,0-0.1c0,0,0,0,0,0c0-0.1,0-0.1,0.1-0.1c0.1,0,0.2,0,0.2,0.1
		c0.1,0.4-0.2,0.7-0.4,1c-0.3,0.4-0.6,0.8-0.4,1.4c0.1,0.4,0.3,0.7,0.6,0.8c0,0,0,0,0,0c0,0,0.1,0,0.1,0.1c0.5,0.2,1,0.3,1,0.3
		c0,0,0.1,0,0.1,0.1c0,0,0,0.1,0,0.1c0,0.2-0.1,0.3-0.2,0.4c0,0,0,0.1,0,0.1c0,0-0.1,0.1-0.1,0.1L15.3,47l-1.7,1.2
		c-0.8,0.7-1.3,1.6-1.2,2c0,0.1,0.1,0.2,0.3,0.2c1.4,0.1,2.2-0.7,2.9-1.5l0.2-0.2c0.5-0.5,0.8-1.1,1.1-1.5c0.2-0.3,0.2-0.4,0.3-0.5
		c0.6-0.4,1.4-1.6,1.6-3C18.9,42.8,18.6,41.9,18,41.2L18,41.2z"/>
	<path class="st0" d="M21.6,46.6c0.3,0,0.5,0,0.8-0.1c0.2-0.1,0.4-0.3,0.5-0.4l0.8,1.1c-0.3,0.4-0.6,0.7-1,1L21.6,46.6L21.6,46.6z
		 M4.1,46.1c0.1,0.2,0.3,0.3,0.5,0.4c0.3,0.1,0.5,0.1,0.8,0.1l-1.2,1.6c-0.4-0.3-0.7-0.7-1-1L4.1,46.1L4.1,46.1z M7.9,55.8
		c0.1-0.1,0.1-0.1,0.2-0.2l0.2-0.2l0.9-0.8c0.6,0.3,1.1,0.5,1.4,0.9c0.2,0.3,0.3,0.6,0.1,0.8c0,0-0.1,0.1-0.2,0.1l-0.4,0.4H9.9
		c-1.1,0-1.9-0.4-2.1-0.8C7.8,56,7.8,55.9,7.9,55.8L7.9,55.8z M18.7,55.4l0.2,0.2c0.1,0.1,0.2,0.1,0.2,0.2c0.1,0.1,0.1,0.3,0,0.4
		c-0.2,0.4-0.9,0.8-2.1,0.8h-0.2l-0.4-0.4l-0.2-0.2c-0.1-0.1-0.1-0.6,0.1-0.8c0.3-0.4,0.8-0.6,1.4-0.9
		C18.1,54.9,18.4,55.2,18.7,55.4L18.7,55.4z"/>
	<path class="st0" d="M8.3,53.9l-0.1-0.1c-2.6-1-4.8-2.4-5.8-3.7c-1.1-1.4-1-2.6-0.6-3.3l0.4-0.8l0.3-0.7c0,0.4,0,0.8,0.2,1.3
		C3.2,48,5,49.3,6.4,50.1C7,50.5,7.6,50.7,8.2,51c1.6,0.7,2.8,1.3,2.8,2.7v1.7l0,0.2c0-0.1-0.1-0.2-0.2-0.3
		C10.3,54.7,9.4,54.3,8.3,53.9L8.3,53.9z M5.7,50.4l0.1-0.2l-0.6-0.4L5.1,50l0.1,0.1l-0.6,1.3l-0.1-0.1l-0.1,0.2
		c0.3,0.2,0.6,0.4,1,0.6l0.3-0.4l0,0l-0.1-0.1c-0.1,0.1-0.2,0.2-0.2,0.2c-0.1,0-0.3-0.1-0.4-0.2c0-0.1,0.4-0.9,0.6-1.2
		C5.6,50.3,5.7,50.3,5.7,50.4L5.7,50.4L5.7,50.4z M4.2,50.5L4.4,50l-0.1-0.1l-0.1,0.1c0,0-0.2-0.2-0.3-0.2l0.3-0.5
		c0.1,0.1,0.3,0.2,0.3,0.3c0,0.1-0.1,0.2-0.1,0.3c0,0,0.1,0.1,0.1,0.1l0.2-0.4l-0.9-0.7L3.8,49L4,49.1l-0.6,1.2l-0.1-0.1l-0.1,0.1
		L4,51.1l0.3-0.4c0-0.1-0.1-0.1-0.1-0.2c0,0-0.2,0.2-0.2,0.2c-0.1,0-0.3-0.2-0.4-0.3c0-0.1,0.2-0.4,0.3-0.5c0.1,0.1,0.2,0.1,0.2,0.2
		c0,0.1,0,0.1-0.1,0.2L4.2,50.5L4.2,50.5z M9.4,52c-0.4-0.2-0.9-0.4-1.3-0.6l-0.2,0.4L8,51.9l0.2-0.2c0.1,0,0.2,0.1,0.3,0.1
		l-0.6,1.3L7.7,53l-0.1,0.2l0.7,0.3l0.1-0.2l-0.2-0.1l0.6-1.3C8.9,52,9,52,9.1,52.1L9,52.4c0,0,0.1,0.1,0.2,0.1L9.4,52L9.4,52z
		 M7.8,51.3L7.3,51l-0.1,0.1l0.2,0.1c-0.2,0.4-0.5,1.4-0.9,1.1c-0.3-0.2-0.2-0.4,0-0.8L6.7,51L6.9,51L7,50.9l-0.6-0.3l-0.1,0.2
		l0.1,0.1c0,0.1-0.1,0.3-0.2,0.4C6,51.7,5.8,52,6,52.3c0,0.1,0.1,0.1,0.2,0.2c0.1,0.1,0.3,0.1,0.4,0.1c0.5,0,0.7-0.6,1-1.2l0.1,0.1
		L7.8,51.3L7.8,51.3z M3.6,48.8l0.1,0.1l0.1-0.2l-0.4-0.4c0,0.1-0.1,0.1-0.1,0.2c0,0.1,0.1,0.1,0.2,0.2l-0.7,0.8
		c0,0,0.2-1.2,0.2-1.3L3,48.2l0.1-0.2c-0.2-0.2-0.3-0.4-0.4-0.6l-0.1,0.1l0.1,0.1c0,0.2-0.3,1.7-0.3,1.8l0.1,0.2
		C2.8,49.6,3.5,48.9,3.6,48.8L3.6,48.8L3.6,48.8z M24.7,50.1c-1,1.3-3.2,2.7-5.8,3.7l-0.1,0.1c-1,0.4-2,0.8-2.5,1.4
		c-0.1,0.1-0.1,0.2-0.2,0.3l0-0.2v-1.7c0-1.4,1.3-2,2.8-2.7l1.8-0.9c1.4-0.8,3.2-2.2,3.7-3.5c0.2-0.5,0.3-0.9,0.2-1.3L25,46l0.4,0.8
		C25.7,47.5,25.8,48.7,24.7,50.1L24.7,50.1z M19.2,52.2c0-0.3,0-0.5,0.1-0.8l0.3,0.6L19.2,52.2L19.2,52.2z M20.6,52
		c0,0.1,0.1,0.2,0,0.3s-0.4,0.3-0.5,0.3c-0.1-0.2-0.1-0.3-0.2-0.5c0.1,0,0.4-0.2,0.4-0.2l0.1,0.1l0.2-0.1l-0.2-0.5l-0.2,0.1l0,0.2
		c0,0.1-0.3,0.2-0.4,0.2l-0.3-0.6c0.1-0.1,0.3-0.2,0.5-0.2c0.1,0,0.1,0.1,0.2,0.2l0.2-0.1c0,0-0.2-0.3-0.2-0.4l-1,0.5L19,53.1
		l-0.1,0.1l0.1,0.2l0.5-0.2L19.4,53c-0.1,0-0.1,0.1-0.2,0.1l0-0.6l0.4-0.2l0.2,0.5l-0.2,0.1l0.1,0.2l1.1-0.6L20.8,52L20.6,52
		L20.6,52z M21.9,50l0.1-0.1L22,49.7l-0.5,0.3l0.1,0.2l0.2-0.1c0.1,0.4,0.1,0.8,0.1,1.1l0,0.2c0,0-0.2-0.2-0.2-0.2l-0.4-0.5L21,50.5
		l0.2-0.1l-0.1-0.2l-0.7,0.4l0.1,0.2l0.1-0.1L21,51l0.6,0.6l0.3,0.3l0.2-0.1L22,50.5L21.9,50L21.9,50z M23.5,50.6
		c-0.4,0.3-0.8-0.2-0.9-0.6c0-0.2,0-0.4,0.1-0.6l0.1-0.1c0.1-0.1,0.2-0.1,0.2-0.1C23.5,49.2,23.9,50.2,23.5,50.6L23.5,50.6z
		 M23.6,49.1c-0.2-0.2-0.5-0.3-0.9,0l-0.2,0.2c-0.2,0.2-0.2,0.4-0.2,0.6c0,0.1,0,0.2,0,0.3c0,0.1,0.1,0.3,0.2,0.4
		c0.2,0.3,0.5,0.4,0.9,0.3C24,50.5,24.1,49.6,23.6,49.1L23.6,49.1L23.6,49.1z"/>
	<path class="st0" d="M19.4,56.5v2.4c0,0.7-1.2,1-2.3,1H9.9c-1,0-2.3-0.3-2.3-1v-2.4l0-0.1c0.4,0.5,1.3,0.8,2.3,0.8h7.2
		C18.1,57.2,19,56.9,19.4,56.5L19.4,56.5z M17,58.5l0-0.7c0.1,0,0.2,0,0.3,0c0.2,0.1,0.3,0.3,0.1,0.5C17.4,58.5,17.2,58.5,17,58.5
		C17,58.5,17,58.5,17,58.5z M17.8,59.1c-0.1-0.1-0.2-0.4-0.3-0.5c0.3-0.1,0.5-0.6,0.2-0.8c-0.2-0.2-0.7-0.1-1.1-0.1v0.2v0l0.2,0v1.4
		l-0.2,0l0,0.2v0h0.7l0-0.2l-0.2,0l0-0.5c0.1,0,0.2,0,0.2,0c0.2,0.1,0.3,0.5,0.4,0.7c0,0,0.4,0,0.4,0l0-0.2l-0.2,0
		C17.9,59.2,17.8,59.1,17.8,59.1L17.8,59.1L17.8,59.1z M13.8,59c0,0.1-0.2,0.2-0.3,0.2c-0.1,0-0.2,0-0.2,0c0,0,0-0.1,0-0.1
		c0-0.1,0-0.4,0-0.5C13.6,58.6,13.9,58.7,13.8,59L13.8,59L13.8,59z M13.3,57.8c0.2,0,0.3,0,0.4,0.1c0,0.1,0.1,0.1,0,0.2
		c0,0.2-0.2,0.3-0.5,0.3L13.3,57.8L13.3,57.8z M13.7,58.5L13.7,58.5L13.7,58.5c0.3-0.1,0.5-0.5,0.1-0.7c-0.2-0.1-0.7-0.1-1.1-0.1
		v0.2l0.2,0v1.4l-0.2,0l0,0.2c0.4,0,0.9,0.1,1.1-0.1c0.2-0.1,0.3-0.4,0.2-0.6C14,58.5,13.9,58.5,13.7,58.5L13.7,58.5L13.7,58.5z
		 M11.5,58.5l0-0.7c0.1,0,0.2,0,0.3,0c0.2,0.1,0.3,0.3,0.1,0.5C11.8,58.5,11.7,58.5,11.5,58.5C11.5,58.5,11.5,58.5,11.5,58.5z
		 M12.3,59.1c-0.1-0.1-0.2-0.4-0.3-0.5c0.3-0.1,0.5-0.6,0.2-0.8c-0.2-0.2-0.7-0.1-1.1-0.1l0,0.2v0l0.2,0v1.4l-0.2,0l0,0.2v0h0.7
		l0-0.2l-0.2,0l0-0.5c0.1,0,0.2,0,0.2,0c0.2,0.1,0.3,0.5,0.4,0.7c0,0,0.4,0,0.4,0l0-0.2l-0.2,0C12.3,59.2,12.3,59.1,12.3,59.1
		L12.3,59.1L12.3,59.1z M9.6,58.7L9.9,58l0.2,0.7H9.6L9.6,58.7z M10,57.7c-0.1,0-0.2,0-0.2,0l-0.6,1.6c0,0-0.1,0-0.2,0v0.2h0.6v-0.2
		l-0.2,0l0.1-0.3l0.6,0c0,0.1,0.1,0.2,0.1,0.3l-0.2,0v0.2h0.7v-0.2l-0.2,0L10,57.7L10,57.7z M15.4,59.3c-0.5,0.1-0.6-0.5-0.5-0.9
		c0-0.2,0.1-0.4,0.3-0.5l0.1,0c0.1,0,0.2,0,0.3,0.1C16,58.1,15.9,59.2,15.4,59.3L15.4,59.3L15.4,59.3z M15.3,57.7l-0.2,0
		c-0.2,0.1-0.4,0.2-0.5,0.4c0,0.1-0.1,0.2-0.1,0.3c0,0.1,0,0.3,0,0.4c0,0.4,0.3,0.7,0.7,0.7c0.7,0.1,1.1-0.7,0.9-1.3
		C16,57.8,15.8,57.6,15.3,57.7L15.3,57.7L15.3,57.7z M25.7,30.6v0.1l0,0.1H1.3l0-0.1l0-0.1H25.7L25.7,30.6z M25.7,30.6v-9.3H1.3v9.3
		 M11.7,27.3c0.1,0,0.3,0.1,0.3,0.3s-0.1,0.3-0.3,0.3s-0.3-0.1-0.3-0.3S11.6,27.3,11.7,27.3L11.7,27.3z M9.9,27.9
		c0.1-0.1,0.3,0,0.3,0.1s0,0.3-0.1,0.3s-0.3,0-0.3-0.1S9.8,28,9.9,27.9L9.9,27.9L9.9,27.9z M10.8,27.7c0.1,0,0.1,0.1,0.1,0.1
		s-0.1,0.1-0.1,0.1s-0.1-0.1-0.1-0.1S10.8,27.7,10.8,27.7L10.8,27.7z M12.6,27.4c0.1,0,0.1,0.1,0.1,0.1s-0.1,0.1-0.1,0.1
		s-0.1-0.1-0.1-0.1S12.5,27.4,12.6,27.4L12.6,27.4z M15.5,27.6c0,0.1-0.1,0.3-0.3,0.3S15,27.7,15,27.6s0.1-0.3,0.3-0.3
		S15.5,27.4,15.5,27.6L15.5,27.6z M17.2,28.3c-0.1,0.1-0.2,0.2-0.3,0.1s-0.2-0.2-0.1-0.3s0.2-0.2,0.3-0.1S17.3,28.2,17.2,28.3
		L17.2,28.3L17.2,28.3z M16.3,27.8c0,0.1-0.1,0.1-0.1,0.1S16,27.9,16,27.8s0.1-0.1,0.1-0.1S16.3,27.7,16.3,27.8L16.3,27.8z
		 M14.5,27.5c0,0.1-0.1,0.1-0.1,0.1s-0.1-0.1-0.1-0.1s0.1-0.1,0.1-0.1S14.5,27.4,14.5,27.5L14.5,27.5z M13.5,24.3
		c0.1,0,0.3,0.1,0.3,0.3s-0.1,0.3-0.3,0.3c-0.1,0-0.3-0.1-0.3-0.3C13.2,24.5,13.3,24.3,13.5,24.3L13.5,24.3z M13.5,23.6
		c0.1,0,0.3,0.1,0.3,0.3s-0.1,0.3-0.3,0.3c-0.1,0-0.3-0.1-0.3-0.3C13.2,23.7,13.3,23.6,13.5,23.6L13.5,23.6z M13.5,22.9
		c0.1,0,0.3,0.1,0.3,0.3s-0.1,0.3-0.3,0.3c-0.1,0-0.3-0.1-0.3-0.3C13.2,23,13.3,22.9,13.5,22.9L13.5,22.9z M12.2,23
		c0.1,0,0.3,0.1,0.3,0.3s-0.1,0.3-0.3,0.3S12,23.4,12,23.2S12.1,23,12.2,23L12.2,23z M11.4,22.7c0.1,0,0.3,0.1,0.3,0.3
		c0,0.1-0.1,0.3-0.3,0.3c-0.1,0-0.3-0.1-0.3-0.3C11.1,22.8,11.3,22.7,11.4,22.7L11.4,22.7z M10.5,22.5c0.1,0,0.3,0.1,0.3,0.3
		c0,0.1-0.1,0.3-0.3,0.3c-0.1,0-0.3-0.1-0.3-0.3C10.3,22.6,10.4,22.5,10.5,22.5L10.5,22.5z M9.6,22.6c0.1,0,0.3,0.1,0.3,0.3
		s-0.1,0.3-0.3,0.3S9.4,23,9.4,22.9S9.5,22.6,9.6,22.6L9.6,22.6z M8.9,23.1c0.1,0,0.3,0.1,0.3,0.3c0,0.1-0.1,0.3-0.3,0.3
		s-0.3-0.1-0.3-0.3C8.6,23.2,8.7,23.1,8.9,23.1L8.9,23.1z M8.4,23.9c0.1,0,0.3,0.1,0.3,0.3c0,0.1-0.1,0.3-0.3,0.3
		c-0.1,0-0.3-0.1-0.3-0.3C8.2,24,8.3,23.9,8.4,23.9L8.4,23.9z M8.4,24.8c0.1,0,0.3,0.1,0.3,0.3s-0.1,0.3-0.3,0.3S8.2,25.2,8.2,25
		S8.3,24.8,8.4,24.8L8.4,24.8z M8.8,25.6c0.1,0,0.3,0.1,0.3,0.3s-0.1,0.3-0.3,0.3c-0.1,0-0.3-0.1-0.3-0.3
		C8.5,25.7,8.6,25.6,8.8,25.6L8.8,25.6z M15,23.2c0,0.1-0.1,0.3-0.3,0.3s-0.3-0.1-0.3-0.3s0.1-0.3,0.3-0.3S15,23.1,15,23.2L15,23.2z
		 M15.9,22.9c0,0.1-0.1,0.3-0.3,0.3c-0.1,0-0.3-0.1-0.3-0.3c0-0.1,0.1-0.3,0.3-0.3S15.9,22.8,15.9,22.9L15.9,22.9z M16.7,22.7
		c0,0.1-0.1,0.3-0.3,0.3c-0.1,0-0.3-0.1-0.3-0.3c0-0.1,0.1-0.3,0.3-0.3S16.7,22.6,16.7,22.7L16.7,22.7z M17.6,22.9
		c0,0.1-0.1,0.3-0.3,0.3s-0.3-0.1-0.3-0.3s0.1-0.3,0.3-0.3S17.6,22.7,17.6,22.9L17.6,22.9z M18.4,23.3c0,0.1-0.1,0.3-0.3,0.3
		s-0.3-0.1-0.3-0.3c0-0.1,0.1-0.3,0.3-0.3C18.3,23.1,18.4,23.2,18.4,23.3L18.4,23.3z M18.8,24.1c0,0.1-0.1,0.3-0.3,0.3
		c-0.1,0-0.3-0.1-0.3-0.3c0-0.1,0.1-0.3,0.3-0.3S18.8,24,18.8,24.1L18.8,24.1z M18.8,25c0,0.1-0.1,0.3-0.3,0.3s-0.3-0.1-0.3-0.3
		s0.1-0.3,0.3-0.3S18.8,24.9,18.8,25L18.8,25z M18.5,25.9c0,0.1-0.1,0.3-0.3,0.3S18,26,18,25.9s0.1-0.3,0.3-0.3S18.5,25.7,18.5,25.9
		L18.5,25.9z M16,30c0,0,0.2-0.1,0.2-0.1c0.5-0.3,0.7-0.6,0.7-0.8c0-0.5-1.5-1-3.4-1s-3.4,0.5-3.4,1c0,0.2,0.2,0.5,0.8,0.8L11,30
		c0,0-0.2,0-0.3,0c-0.6-0.2-1-0.5-1-0.9c0-0.8,1.9-1.2,3.7-1.2c1.8,0,3.7,0.4,3.7,1.2c0,0.4-0.4,0.7-1,0.9C16.2,29.9,15.9,30,16,30
		L16,30L16,30z M13.5,27c-1.1,0-2.2,0.2-3,0.4c-0.3,0.1-0.6,0.3-0.7,0.4c0,0-0.1,0-0.1,0c-0.1,0-0.1-0.1-0.1-0.2
		c-0.1-0.4-0.2-0.8-0.4-1.2c0-0.1,0-0.1,0.1-0.1c0.2,0.2,0.5,0.8,0.6,1c0,0,0,0,0,0c0.1-0.1,0.3-0.2,0.6-0.3
		c0.8-0.3,1.9-0.5,3.1-0.5h0c1.2,0,2.3,0.2,3.1,0.5c0.2,0.1,0.4,0.2,0.6,0.3c0,0,0,0,0,0c0-0.2,0.4-0.8,0.6-1c0-0.1,0.1,0,0.1,0.1
		c-0.2,0.4-0.3,0.8-0.4,1.2c0,0.1,0,0.1-0.1,0.2c0,0-0.1,0-0.1,0c-0.2-0.1-0.4-0.2-0.7-0.4C15.7,27.2,14.7,27,13.5,27L13.5,27
		L13.5,27z M14.1,22.2c0,0.1-0.1,0.1-0.1,0.1h-0.3v0.3c0,0.1-0.1,0.1-0.1,0.1s-0.1-0.1-0.1-0.1v-0.3h-0.3c-0.1,0-0.1-0.1-0.1-0.1
		s0.1-0.1,0.1-0.1h0.3v-0.3c0-0.1,0.1-0.1,0.1-0.1s0.1,0.1,0.1,0.1v0.3h0.3C14,22.1,14.1,22.1,14.1,22.2z M13.5,28.5
		c1,0,3,0.2,3,0.8s-2,0.8-3,0.8s-3-0.2-3-0.8S12.4,28.5,13.5,28.5z M18.2,24.5c0,0.8-0.6,1.7-0.9,2l0,0l0,0v0
		c-0.1,0.2-0.5,0.5-0.9,0.3c-0.2-0.1-0.4-0.1-0.6-0.3c-0.1-0.1-0.1-0.3,0-0.5c0,0,0.1-0.1,0.2-0.1c0,0,0.1,0.1,0,0.2
		c-0.1,0.1,0,0.2,0.1,0.3c0.1,0,0.2,0,0.2,0c0,0-0.2-0.1,0-0.2c0.1-0.1,0.4-0.3,0-0.5c-0.3-0.1-0.5,0.3-0.5,0.3s-0.1,0,0,0
		c0.1-0.3,0.3-0.4,0.4-0.7c0-0.2-0.1-0.4-0.2-0.5c0,0-0.1,0-0.1,0c-0.1,0-0.3,0.2-0.4,0.4c-0.1,0.3,0.1,0.5,0.1,0.8
		c0,0.1,0,0.1-0.1,0s-0.1-0.5-0.4-0.5c-0.4,0-0.3,0.4-0.2,0.5c0.1,0.2-0.1,0.2-0.1,0.2c0,0,0.1,0.1,0.2,0.1c0.1,0,0.2-0.1,0.2-0.2
		c0-0.1,0-0.1,0.1-0.1c0.1,0,0.1,0.1,0.1,0.1c0.1,0.2,0,0.3-0.2,0.4c-0.2,0.2-0.5,0.2-0.7,0.1c-0.6-0.1-0.6-0.4-0.6-0.4l0.4,0.1
		c0,0,0,0,0,0c0,0,0.1,0,0.1-0.1v-0.6c0,0,0-0.1-0.1-0.1c0,0,0,0,0,0l-0.4,0.2l0.1-0.3c0,0,0,0,0,0c0,0,0-0.1-0.1-0.1l0,0h-0.7
		c0,0-0.1,0-0.1,0.1l0,0c0,0,0,0,0,0l0.1,0.3l-0.4-0.2c0,0,0,0,0,0c0,0-0.1,0-0.1,0.1l0,0v0.6c0,0,0,0.1,0.1,0.1l0,0c0,0,0,0,0,0
		l0.4-0.1c0,0,0,0.4-0.6,0.4c-0.2,0-0.5,0-0.7-0.1c-0.1-0.1-0.2-0.2-0.2-0.4c0-0.1,0.1-0.2,0.1-0.1c0,0,0.1,0.1,0.1,0.1
		c0,0.1,0.1,0.2,0.2,0.2c0.1,0,0.2-0.1,0.2-0.1c0,0-0.2,0-0.1-0.2c0.1-0.1,0.2-0.5-0.2-0.5c-0.3,0-0.4,0.4-0.4,0.5s0,0.1-0.1,0
		c-0.1-0.3,0.1-0.5,0.1-0.8c0-0.2-0.3-0.3-0.4-0.4c0,0-0.1,0-0.1,0c-0.1,0.1-0.3,0.3-0.2,0.5c0.1,0.3,0.3,0.4,0.4,0.7
		c0,0.1,0,0.1,0,0s-0.3-0.5-0.5-0.3c-0.4,0.2-0.1,0.4,0,0.5c0.1,0.1,0,0.2,0,0.2c0,0,0.1,0.1,0.2,0c0.1-0.1,0.1-0.2,0.1-0.3
		c0-0.1,0-0.1,0-0.2c0,0,0.2,0,0.2,0.1c0.1,0.2,0.1,0.3,0,0.5c-0.1,0.2-0.3,0.3-0.6,0.3c-0.4,0.1-0.7-0.1-0.9-0.3v0l0,0l0,0
		c-0.3-0.4-0.9-1.2-0.9-2c0-0.8,0.7-1.4,1.6-1.4c0.4,0,0.8,0.1,1.1,0.3c0.4,0.1,0.8,0.3,1.2,0.2v-0.8c0-0.1,0.1-0.1,0.1-0.1
		s0.1,0.1,0.1,0.1V25h1v-2.1c0-0.1,0.1-0.1,0.1-0.1s0.1,0.1,0.1,0.1v0.8c0.4,0,0.8-0.1,1.2-0.2c0.4-0.1,0.7-0.3,1.1-0.3
		C17.5,23.2,18.2,23.8,18.2,24.5L18.2,24.5z M13.5,29.8c1.8,0,2.7-0.4,2.7-0.5s-0.9-0.5-2.7-0.5s-2.7,0.4-2.7,0.5
		S11.7,29.8,13.5,29.8z M12.7,24c-0.1,0-0.2,0-0.3,0c0.1,0,0.2,0.1,0.3,0.1V24L12.7,24z M17.8,25.2c0.1-0.2,0.1-0.4,0.1-0.6
		c0-0.6-0.6-1.1-1.3-1.1c-0.3,0-0.7,0.1-1,0.3l-0.4,0.1l0.1,0c0.5,0,0.9,0.2,1.2,0.4c0.5,0,0.9,0.1,1.2,0.5
		C17.7,24.9,17.7,25,17.8,25.2L17.8,25.2z M14.3,24v0.2c0.1-0.1,0.2-0.1,0.3-0.1C14.5,24,14.4,24,14.3,24L14.3,24z M17.3,24.9
		c-0.2-0.2-0.5-0.4-1-0.3c0,0-0.1,0-0.1-0.1c-0.1-0.2-0.5-0.4-1-0.4c-0.2,0-0.7,0-0.9,0.4l0,0.4c0.1-0.1,0.3-0.2,0.4-0.3
		c0.1,0,0.2-0.1,0.3-0.1c0.1,0,0.2,0,0.2,0.1s-0.2,0.1-0.4,0.3c-0.1,0.1-0.3,0.3-0.3,0.4c0.1,0,0.2,0,0.2,0.1
		c0.1-0.1,0.2-0.2,0.4-0.2c0,0,0.1,0,0.1,0l0-0.1c0.1-0.4,0.5-0.6,0.7-0.6c0.1,0,0.2,0,0.2,0c0.2,0.1,0.4,0.4,0.4,0.7
		c0,0,0,0.1,0,0.1c0,0,0,0,0,0.1l0.1,0c0.3,0.1,0.3,0.3,0.4,0.4c0,0,0,0,0,0.1c0,0.2-0.1,0.3-0.2,0.4c0,0,0,0.1,0,0.1
		c0,0.1,0,0.2-0.1,0.2c0,0,0,0,0.1,0c0.2,0,0.3-0.2,0.4-0.5c0.2-0.6-0.5-1.1-0.4-1.2c0,0,0.1,0,0.1,0c0.3,0.2,0.7,0.5,0.6,1l0.1-0.2
		C17.6,25.5,17.5,25.2,17.3,24.9L17.3,24.9z M11.9,23.9l-0.4-0.1c-0.4-0.1-0.7-0.3-1-0.3c-0.7,0-1.3,0.5-1.3,1.1
		c0,0.2,0.1,0.4,0.1,0.6c0-0.1,0.1-0.3,0.2-0.4c0.2-0.3,0.6-0.5,1.1-0.5c0.2-0.2,0.7-0.4,1.2-0.4C11.8,23.8,11.8,23.9,11.9,23.9
		L11.9,23.9z M13.7,27.4c0,0.1-0.1,0.3-0.3,0.3s-0.3-0.1-0.3-0.3s0.1-0.3,0.3-0.3S13.7,27.3,13.7,27.4z M12.7,24.5
		c-0.3-0.3-0.7-0.4-0.9-0.4c-0.5,0-0.9,0.2-1,0.4c0,0-0.1,0.1-0.1,0.1c-0.5,0-0.8,0.1-1,0.3c-0.2,0.3-0.2,0.6-0.1,0.8
		c0,0.1,0.1,0.2,0.1,0.2c0-0.5,0.3-0.9,0.6-1c0,0,0.1,0,0.1,0c0.1,0.1-0.6,0.6-0.4,1.2c0.1,0.4,0.3,0.5,0.5,0.5l0,0
		c-0.1-0.1-0.1-0.2-0.1-0.2c0,0,0-0.1,0-0.1c-0.1-0.1-0.2-0.3-0.2-0.4c0,0,0,0,0-0.1c0-0.1,0.1-0.3,0.4-0.4c0,0,0.1,0,0.1,0
		c0,0,0,0,0-0.1c0,0,0-0.1,0-0.1c0-0.3,0.2-0.6,0.4-0.7c0,0,0.1-0.1,0.2,0c0.2,0,0.6,0.2,0.7,0.6c0,0,0,0,0,0.1c0,0,0.1,0,0.1,0
		c0.2,0,0.3,0.1,0.4,0.2c0-0.1,0.1-0.1,0.2-0.1c-0.1-0.1-0.2-0.3-0.4-0.4c-0.2-0.1-0.4-0.2-0.4-0.3s0.1-0.1,0.2-0.1
		c0.1,0,0.2,0.1,0.3,0.1c0.2,0.1,0.3,0.2,0.4,0.3L12.7,24.5L12.7,24.5z M26.4,20.6H0.6v13c0,3.8,1.1,7.1,2.6,9.9
		C2.8,43.7,2.4,44,2,44.8l-0.5,1l-0.4,0.8c-0.1,0.3-0.3,0.8-0.3,1.4c0,0.8,0.3,1.7,1,2.5C3,51.8,5.2,53.3,8,54.4l0.4,0.2l-0.5,0.4
		l-0.2,0.2c0,0-0.2,0.2-0.2,0.2c0,0-0.1,0.1-0.1,0.1c-0.3,0.3-0.4,0.7-0.4,1.2v2.4c0,1,1.1,1.6,2.9,1.6h7.2c1.8,0,2.9-0.6,2.9-1.6
		v-2.4c0-0.5-0.1-0.9-0.4-1.2c0,0,0-0.1,0-0.1c-0.1-0.1-0.2-0.1-0.2-0.2c0,0-0.4-0.4-0.7-0.6l0.4-0.2c2.7-1.1,5-2.5,6.1-3.9
		c0.7-0.8,1-1.7,1-2.5c0-0.5-0.1-0.9-0.3-1.4l-0.3-0.8l-0.5-1c-0.3-0.6-0.7-1-1.2-1.2c1.5-2.8,2.6-6.1,2.6-10L26.4,20.6L26.4,20.6z
		 M24.7,44.9l0.5,1l0.3,0.8c0.2,0.4,0.3,0.8,0.3,1.2c0,0.8-0.3,1.6-0.9,2.4c-1.1,1.3-3.3,2.8-6,3.8l-0.9,0.3l1,0.9
		c0.1,0,0.1,0.1,0.2,0.1c0,0,0,0.1,0,0.1c0.2,0.3,0.3,0.6,0.3,1v2.4c0,0.8-1,1.3-2.6,1.3H9.9c-1.6,0-2.6-0.5-2.6-1.3v-2.4
		c0-0.4,0.1-0.7,0.3-1c0,0,0,0,0.1-0.1c0,0,0.2-0.1,0.2-0.1l0.2-0.2l0.8-0.7l-0.9-0.3c-2.7-1.1-4.9-2.5-6-3.8
		c-0.6-0.8-0.9-1.6-0.9-2.4c0-0.4,0.1-0.8,0.3-1.2l0.4-0.8l0.5-1c0.4-0.7,0.7-1,1.1-1.1l0.1,0.3c-0.2,0.1-0.4,0.3-0.5,0.5
		c-0.2,0.3-0.2,0.6-0.2,0.9c0,0.3,0.1,0.7,0.2,1L3.1,47l1.1-1.5l0.1,0.2c0.1,0.2,0.3,0.4,0.6,0.6c0,0,0.1,0,0.1,0
		c0.2,0.3,0.4,0.5,0.6,0.8l-1,1.4l0.2,0.2c0.8,0.7,1.6,1.1,1.8,1.2c0.6,0.3,1.2,0.6,1.7,0.9c0.5,0.2,1,0.5,1.5,0.8
		c0.3,0.3,0.7,0.5,1,0.8c0.3,0.4,0.5,0.9,0.5,1.4v1.7c0,0.6-0.2,0.8-0.4,1l-0.4,0.5h6l-0.4-0.5c-0.2-0.2-0.4-0.5-0.4-1v-1.7
		c0-0.5,0.1-0.9,0.4-1.3c0.5-0.3,0.9-0.7,1.3-1.1c0.4-0.2,0.9-0.4,1.3-0.6c0.6-0.3,1.2-0.5,1.7-0.9c0.6-0.3,1.2-0.8,1.8-1.2l0.2-0.2
		l-0.9-1.4c0.2-0.3,0.4-0.6,0.6-0.8c0,0,0,0,0.1,0c0.3-0.1,0.5-0.3,0.6-0.6l0.1-0.2l1.1,1.5l0.2-0.5c0.1-0.3,0.2-0.7,0.2-1
		c0-0.3-0.1-0.7-0.2-0.9c-0.1-0.2-0.3-0.4-0.5-0.5c0-0.1,0.1-0.1,0.1-0.2C24.1,44,24.5,44.4,24.7,44.9L24.7,44.9z M5.7,47.3
		c1,1.2,2,2.3,3.2,3.4l-0.5-0.2c-0.6-0.3-1.1-0.5-1.7-0.9c-0.6-0.4-1.2-0.8-1.8-1.2L5.7,47.3L5.7,47.3z M15.9,56.6h-4.7
		c0.2-0.2,0.4-0.6,0.4-1.2v-1.7c0-0.3-0.1-0.6-0.2-0.9c1,0.8,1.7,1.2,1.8,1.2l0.3,0.2l0.3-0.2c0.6-0.3,1.1-0.7,1.7-1.1
		c-0.1,0.3-0.1,0.5-0.1,0.9v1.7C15.4,56.1,15.6,56.4,15.9,56.6L15.9,56.6z M18.3,50.6c1-0.9,2-2,3.1-3.3l0.7,1.1
		c-0.6,0.4-1.1,0.8-1.8,1.2c-0.6,0.3-1.1,0.6-1.7,0.8L18.3,50.6L18.3,50.6z M21.2,47.1c-1.2,1.5-2.5,2.8-3.9,4l-1.4,1.1
		c-1.2,0.9-2.1,1.4-2.1,1.5l-0.2,0.1l-0.2-0.1c0,0-1-0.6-2.3-1.6L10,51.2c-1.3-1.1-2.7-2.5-4.1-4.2l-0.2-0.2l-0.4-0.5L5.1,46
		c-0.4-0.6-0.8-1.2-1.2-1.8L3.8,44c0-0.1-0.1-0.2-0.1-0.2l-0.1-0.3c-1.5-2.8-2.6-6-2.6-9.8V20.9h25.2v12.7c0,3.8-1.1,7.1-2.6,9.9
		L23.3,44l-0.2,0.3l-0.4,0.6L22.7,45c-0.2,0.4-0.5,0.7-0.7,1l-0.2,0.3c-0.1,0.2-0.3,0.3-0.4,0.5L21.2,47.1L21.2,47.1z M6,9.1
		C5.9,9.2,5.9,9.3,5.8,9.3C5.8,9.2,5.7,9.1,5.7,9c0,0,0.6-0.3,0.6-0.2S6.2,9,6.2,9S6.1,9.1,6,9.1L6,9.1z M8.4,5.1L8.4,5.1
		c0.1,0.1,0.4,0.3,0.4,0.4c0,0,0,0.2-0.1,0.3c0,0-0.1,0-0.1,0l0-0.4C8.6,5.5,8.5,5.3,8.4,5.1L8.4,5.1z M13,2.7l0-0.3l0.3,0.6
		c0,0.1-0.2,0.1-0.2,0.2C13,3.1,13,3.3,13,3.3l-0.1-0.1C12.9,3,13,2.8,13,2.7L13,2.7z M9.3,4.2C9.4,4.3,9.9,4.4,10,4.4
		c0,0,0,0.1,0,0.2C9.8,4.7,9.7,4.5,9.6,4.4C9.5,4.3,9.3,4.3,9.3,4.2C9.3,4.3,9.3,4.2,9.3,4.2 M18,3.9c-0.1,0.1-0.3,0.4-0.3,0.4
		s0.1,0,0.1,0l0.4-0.4C18.3,3.8,18,3.9,18,3.9L18,3.9z"/>
</g>
</svg>
